<?xml version="1.0" standalone="no"?>
<!DOCTYPE svg PUBLIC "-//W3C//DTD SVG 1.1//EN" "http://www.w3.org/Graphics/SVG/1.1/DTD/svg11.dtd" >
<svg>
<metadata>
Created by FontForge 20090622 at Mon Oct 23 12:29:49 2017
 By deploy user
Copyright (c) 2017 by Alexander Pravdin. All rights reserved.
</metadata>
<defs>
<font id="NEXTART-Bold" horiz-adv-x="1629" >
  <font-face 
    font-family="NEXT ART"
    font-weight="700"
    font-stretch="normal"
    units-per-em="2048"
    panose-1="2 0 8 3 3 0 0 2 0 4"
    ascent="1638"
    descent="-410"
    x-height="1433"
    cap-height="1435"
    bbox="-257 -610 3006 1979"
    underline-thickness="50"
    underline-position="-100"
    unicode-range="U+0020-U+2122"
  />
<missing-glyph horiz-adv-x="1100" 
d="M964 0h-882v1434h882v-1434zM263 1253v-1072h520v1072h-520z" />
    <glyph glyph-name=".notdef" horiz-adv-x="1100" 
d="M964 0h-882v1434h882v-1434zM263 1253v-1072h520v1072h-520z" />
    <glyph glyph-name=".null" horiz-adv-x="0" 
 />
    <glyph glyph-name="nonmarkingreturn" horiz-adv-x="682" 
 />
    <glyph glyph-name="space" unicode=" " horiz-adv-x="508" 
 />
    <glyph glyph-name="exclam" unicode="!" horiz-adv-x="533" 
d="M415 1434l-19 -1019h-262l-19 1019h300zM415 150q0 -60 -44 -105t-106 -45q-60 0 -105 44t-45 106q0 60 44 105t106 45q60 0 105 -44t45 -106z" />
    <glyph glyph-name="quotedbl" unicode="&#x22;" horiz-adv-x="854" 
d="M471 1434h257l-26 -452h-231v452zM125 1434h257v-452h-231z" />
    <glyph glyph-name="numbersign" unicode="#" horiz-adv-x="1619" 
d="M1040 1434h282l-66 -357h303l-46 -248h-303l-41 -224h303l-46 -247h-303l-66 -358h-282l66 358h-196l-66 -358h-282l66 358h-303l46 247h303l41 224h-303l46 248h303l66 357h282l-66 -357h196zM729 833l-42 -232h203l42 232h-203z" />
    <glyph glyph-name="dollar" unicode="$" horiz-adv-x="1260" 
d="M53 248l184 204q90 -93 203 -138t221 -43q110 2 183 46.5t73 116.5q0 27 -13.5 50t-38.5 39t-50 27.5t-60 19.5t-55.5 12t-49.5 8l-29 4q-1 0 -35.5 5.5l-69.5 11.5t-88 21.5t-99.5 34.5t-95.5 51t-84 70.5t-57.5 94.5t-22.5 121q0 183 117 291.5t303 129.5v243h268v-257
q196 -42 349 -152l-170 -204q-63 48 -165 77.5t-197 27.5q-94 -2 -152 -34.5t-58 -98.5q0 -29 13 -52.5t37.5 -40.5t48.5 -29t58.5 -20.5t55 -13t49.5 -9t31 -4.5t38 -5.5t71 -11.5t88.5 -21t99.5 -34.5t95.5 -52.5t83.5 -73t56.5 -98.5t22.5 -127.5q0 -167 -128.5 -286
t-326.5 -143v-245h-268v259q-233 52 -436 229z" />
    <glyph glyph-name="percent" unicode="%" horiz-adv-x="2150" 
d="M534 0l789 1434h292l-788 -1434h-293zM644 1003q0 73 -37.5 132t-107.5 59q-69 0 -107 -58t-38 -133q0 -73 37 -132.5t108 -59.5q69 0 107 58.5t38 133.5zM922 1003q0 -119 -51 -220.5t-149 -164.5t-223 -63q-182 0 -302.5 129.5t-120.5 318.5q0 119 51.5 220.5
t149.5 164.5t222 63q182 0 302.5 -129t120.5 -319zM1506 432q0 -73 37 -132t108 -59q69 0 107 58t38 133q0 73 -37.5 132t-107.5 59q-60 0 -100 -48q-45 -55 -45 -143zM1228 432q0 92 32.5 176t91.5 146q119 126 299 126q182 0 302.5 -129.5t120.5 -318.5
q0 -119 -51.5 -220.5t-149.5 -164.5t-222 -63q-182 0 -302.5 129.5t-120.5 318.5z" />
    <glyph glyph-name="ampersand" unicode="&#x26;" horiz-adv-x="1506" 
d="M749 353l-245 274q-53 -21 -87.5 -66t-34.5 -102q0 -76 58.5 -129.5t137.5 -53.5q103 0 171 77zM1136 350l313 -349h-385l-121 135q-161 -136 -371 -136q-92 0 -180 34t-157 92.5t-111.5 145t-42.5 184.5q0 116 67 213.5t178 161.5q-64 106 -64 206q0 166 128 282
t302 116q188 0 315 -127l85 -95l-216 -192l-84 95q-39 43 -100 43q-51 0 -90.5 -34.5t-39.5 -86.5q0 -45 31 -79l359 -402q103 154 103 364h277q0 -312 -196 -571z" />
    <glyph glyph-name="quotesingle" unicode="'" horiz-adv-x="525" 
d="M116 1434h293l-23 -452h-247z" />
    <glyph glyph-name="parenleft" unicode="(" horiz-adv-x="674" 
d="M327 1713h276q-115 -198 -176 -466t-61 -529t58.5 -518.5t178.5 -477.5h-276q-123 193 -191.5 466.5t-68.5 529.5q0 552 260 995z" />
    <glyph glyph-name="parenright" unicode=")" horiz-adv-x="675" 
d="M72 1713h276q123 -193 191.5 -465t68.5 -530t-65.5 -520.5t-194.5 -475.5h-276q113 194 175 467t62 529q0 257 -59.5 518t-177.5 477z" />
    <glyph glyph-name="asterisk" unicode="*" horiz-adv-x="833" 
d="M316 1514h201l-6 -218l204 74l62 -192l-208 -62l133 -170l-163 -118l-122 178l-122 -178l-163 118l132 170l-208 62l62 191l204 -73z" />
    <glyph glyph-name="plus" unicode="+" horiz-adv-x="971" 
d="M353 1026h265v-308h309v-266h-309v-309h-265v309h-309v266h309v308z" />
    <glyph glyph-name="comma" unicode="," horiz-adv-x="453" 
d="M141 -240l-74 106q52 36 149 139q-50 12 -84 52t-34 92q0 60 42.5 105t103.5 46q61 2 107.5 -40t46.5 -102q0 -164 -129 -295q-68 -68 -128 -103z" />
    <glyph glyph-name="hyphen" unicode="-" horiz-adv-x="1057" 
d="M137 448v274h781v-274h-781z" />
    <glyph glyph-name="period" unicode="." horiz-adv-x="471" 
d="M385 150q0 -60 -44 -105t-106 -45q-60 0 -105 44t-45 106q0 60 44 105t106 45q60 0 105 -44t45 -106z" />
    <glyph glyph-name="slash" unicode="/" horiz-adv-x="1308" 
d="M953 1708h315l-913 -1995h-315z" />
    <glyph glyph-name="zero" unicode="0" horiz-adv-x="1636" 
d="M398 717q0 -122 51 -223t148 -162t221 -61q129 0 226 61.5t145 162t48 222.5q0 197 -119.5 321.5t-299.5 124.5q-192 0 -306 -129t-114 -317zM87 717q0 200 97 365t264.5 258.5t369.5 93.5q160 0 297.5 -57.5t232 -155t148 -228.5t53.5 -276q0 -156 -58 -290.5
t-157 -227.5t-233 -146t-283 -53q-159 0 -296.5 57t-232 154t-148.5 228.5t-54 277.5z" />
    <glyph glyph-name="one" unicode="1" horiz-adv-x="701" 
d="M51 1435h510v-1435h-299v1158h-211v277z" />
    <glyph glyph-name="two" unicode="2" horiz-adv-x="1222" 
d="M400 276h717v-276h-1017v276q1 53 16 101.5t37.5 85.5t61 73.5t72 62t86 55t88.5 47l92 44.5q26 12 38 18l26 12.5t31.5 15.5l32 17t34.5 20.5l31 22t29.5 26t21.5 27t16 30.5t5 33q0 82 -61 136.5t-149 54.5q-80 0 -136.5 -50.5t-71.5 -133.5h-300q17 200 161 330
t347 130q94 0 185 -34.5t163 -94.5t116.5 -148.5t44.5 -188.5q0 -57 -21.5 -108.5t-53.5 -90t-83 -77t-95 -63.5t-105 -56q-15 -8 -63 -30l-79.5 -37t-76.5 -43t-72 -53.5t-47.5 -61t-20.5 -72.5z" />
    <glyph glyph-name="three" unicode="3" horiz-adv-x="1266" 
d="M99 1435h946v-275l-350 -259q130 -1 241 -57.5t178.5 -157.5t67.5 -224q0 -138 -77.5 -245.5t-200 -162t-263.5 -54.5q-103 0 -197.5 30.5t-170.5 87.5t-123 146.5t-50 198.5h299q7 -85 78 -134t164 -49q60 0 113.5 20.5t91 67t37.5 110.5q0 68 -43 118.5t-105 72.5
t-132.5 20.5t-125.5 -29.5l-160 203l362 297h-580v275z" />
    <glyph glyph-name="four" unicode="4" horiz-adv-x="1266" 
d="M689 1434h296v-877h215v-277h-215v-280h-296v280h-648v277zM689 1023l-341 -466h341v466z" />
    <glyph glyph-name="five" unicode="5" horiz-adv-x="1282" 
d="M111 464h300q9 -86 79.5 -135t163.5 -49q95 0 169 53t74 146q0 92 -72.5 150.5t-170.5 58.5h-543v746h986v-277h-694v-210h251q249 0 395.5 -131t146.5 -353q0 -104 -45.5 -192.5t-121 -147t-173 -91t-202.5 -32.5q-103 0 -198 31t-171 87.5t-123.5 146.5t-50.5 199z" />
    <glyph glyph-name="six" unicode="6" horiz-adv-x="1154" 
d="M356 496q0 -92 59.5 -155.5t153.5 -63.5q91 0 152 62.5t61 156.5q0 91 -60 155t-153 64q-91 0 -152 -62.5t-61 -156.5zM63 463q-1 161 66 310t182 297l290 364h345l-374 -463q18 0 27 -1q203 -12 342.5 -144t139.5 -340q0 -137 -67 -248.5t-183.5 -174.5t-258.5 -63
q-98 0 -188.5 33t-160 92t-113 147t-47.5 191z" />
    <glyph glyph-name="seven" unicode="7" horiz-adv-x="1239" 
d="M605 0h-313l536 1160h-737v275h1112v-138z" />
    <glyph glyph-name="eight" unicode="8" horiz-adv-x="1254" 
d="M864 451q0 57 -37 99t-89 60t-111 18q-55 0 -107 -17t-91 -59t-39 -101q0 -84 72.5 -130.5t164.5 -46.5q56 0 107.5 17t90.5 59t39 101zM423 1012q0 -71 62.5 -110t141.5 -39q47 0 91.5 14.5t78 49.5t33.5 85q0 49 -32 83.5t-76.5 49.5t-94.5 15q-47 0 -91.5 -14
t-78.5 -49t-34 -85zM980 761q96 -76 139.5 -155.5t43.5 -173.5q0 -101 -46.5 -184.5t-123 -136.5t-171.5 -82t-195 -29q-75 0 -150 16.5t-145 52t-123.5 85.5t-85.5 122t-32 156q0 94 43.5 173.5t139.5 155.5q-138 115 -138 277q0 74 28 138.5t75.5 111t110.5 80t133.5 50
t143.5 16.5q69 0 137.5 -15.5t132.5 -48t113 -78.5t78.5 -111.5t29.5 -142.5q0 -162 -138 -277z" />
    <glyph glyph-name="nine" unicode="9" horiz-adv-x="1154" 
d="M582 464q-138 2 -253 60t-185.5 169.5t-70.5 255.5q0 138 67.5 249t184 173.5t258.5 62.5q206 0 350 -127t159 -335q0 -161 -66.5 -309t-182.5 -298l-290 -365h-344l354 440zM585 1158q-90 0 -151.5 -63t-61.5 -156q0 -91 60 -155t153 -64q91 0 152 62.5t61 156.5
q0 92 -59.5 155.5t-153.5 63.5z" />
    <glyph glyph-name="colon" unicode=":" horiz-adv-x="492" 
d="M396 150q0 -60 -44 -105t-106 -45q-60 0 -105 44t-45 106q0 60 44 105t106 45q60 0 105 -44t45 -106zM396 824q0 -60 -44 -105t-106 -45q-60 0 -105 44t-45 106q0 60 44 105t106 45q60 0 105 -44t45 -106z" />
    <glyph glyph-name="semicolon" unicode=";" horiz-adv-x="464" 
d="M400 158q0 -100 -40 -176q-67 -132 -216 -222l-75 106q51 36 150 139q-50 12 -84 52t-34 92q-2 60 41 105t105 46q59 1 106 -42.5t47 -99.5zM400 824q0 -60 -44 -105t-106 -45q-60 0 -105 44t-45 106q0 60 44 105t106 45q60 0 105 -44t45 -106z" />
    <glyph glyph-name="less" unicode="&#x3c;" horiz-adv-x="991" 
d="M896 1153v-301l-546 -267l546 -267v-301l-856 417l1 302z" />
    <glyph glyph-name="equal" unicode="=" horiz-adv-x="1123" 
d="M137 643v247h900v-247h-900zM137 279v248h900v-248h-900z" />
    <glyph glyph-name="greater" unicode="&#x3e;" horiz-adv-x="1033" 
d="M137 1153l856 -417l-1 -302l-855 -417v301l547 267l-547 267v301z" />
    <glyph glyph-name="question" unicode="?" horiz-adv-x="1054" 
d="M374 150q0 62 45 106t105 44q62 0 106 -45t44 -105q0 -62 -45 -106t-105 -44q-62 0 -106 45t-44 105zM659 415h-270q0 176 114 298q19 23 59 56l68 57t51 64t23 85q0 77 -50.5 130t-129.5 53q-77 0 -127.5 -52t-52.5 -131h-299q1 97 38 182t100.5 146t152 96t188.5 35
q130 0 238 -56t173 -162t65 -241q0 -26 -5 -51t-10.5 -45.5t-20 -45l-23 -39.5t-30.5 -39.5l-32 -36t-38 -37t-37 -33l-41.5 -35l-39.5 -33.5q-64 -55 -64 -165z" />
    <glyph glyph-name="at" unicode="@" horiz-adv-x="1839" 
d="M728 712q0 -69 48.5 -120t120.5 -51q70 0 120 50t50 121q0 70 -49 121.5t-121 51.5q-70 0 -119.5 -51t-49.5 -122zM472 707q0 176 104 295t246 119q41 0 75.5 -7t64.5 -24t43.5 -26t40 -33.5t28.5 -25.5v118h246v-578q0 -21 4.5 -44t14 -46.5t28.5 -38.5t44 -15
q129 0 129 314q0 123 -47.5 236t-129 196.5t-196.5 133t-243 49.5q-123 0 -236 -47.5t-196.5 -128.5t-133 -196t-49.5 -243q0 -165 80 -306t222 -225.5t313 -84.5q136 0 269 65l100 -194q-175 -86 -369 -86q-165 0 -318.5 64.5t-268 174t-183.5 265t-69 327.5q0 165 66 318
t177.5 265.5t267.5 179.5t328 67q164 0 318 -64.5t268.5 -174t183.5 -264.5t69 -327q0 -53 -8 -110.5t-24.5 -119t-45 -116t-66 -98t-91.5 -69t-118 -25.5q-221 0 -310 264q-59 -74 -118 -106.5t-160 -31.5q-146 2 -248 112t-102 292z" />
    <glyph glyph-name="A" unicode="A" horiz-adv-x="1539" 
d="M622 1434h296l568 -1434h-295l-87 217h-669l-86 -217h-296zM770 1085l-228 -597h455z" />
    <glyph glyph-name="B" unicode="B" horiz-adv-x="1381" 
d="M435 271h392q71 0 125.5 44t54.5 121q0 73 -53 118.5t-126 45.5h-393v-329zM713 1166h-278v-314h299q64 7 111 49t47 108q0 70 -52.5 113.5t-126.5 43.5zM1165 1004q0 -120 -89 -230q101 -57 162.5 -144.5t61.5 -199.5q0 -192 -123.5 -311t-311.5 -119h-729v1433h595
q185 0 309.5 -118.5t124.5 -310.5z" />
    <glyph glyph-name="C" unicode="C" horiz-adv-x="1584" 
d="M1227 591l285 -88q-64 -225 -257 -364t-439 -139q-148 0 -282.5 55t-233 149.5t-157 228t-58.5 284.5q0 148 56.5 281t153.5 229t232.5 152t288.5 56q159 0 300 -59.5t245.5 -174.5t150.5 -270l-285 -87q-39 142 -151 231t-260 89q-185 0 -302.5 -128t-117.5 -319
q0 -186 117.5 -316t302.5 -130q150 0 260 86t151 234z" />
    <glyph glyph-name="D" unicode="D" horiz-adv-x="1475" 
d="M665 270q180 0 300 128t120 318q0 120 -49.5 221t-147 163.5t-223.5 62.5h-230v-893h230zM665 1433q198 0 365.5 -93t266.5 -258t99 -366q0 -198 -97.5 -363t-265.5 -259t-368 -94h-529v1433h529z" />
    <glyph glyph-name="E" unicode="E" horiz-adv-x="1198" 
d="M136 1434h1009v-276h-709v-236h528v-276h-528v-370h709v-276h-1009v1434z" />
    <glyph glyph-name="F" unicode="F" horiz-adv-x="1184" 
d="M135 1434h1009v-276h-709v-236h528v-276h-528v-646h-300v1434z" />
    <glyph glyph-name="G" unicode="G" horiz-adv-x="1616" 
d="M816 922h704q28 -97 28 -205q0 -198 -96 -362.5t-264.5 -259.5t-371.5 -95q-147 0 -281.5 54t-233.5 147.5t-157.5 228t-58.5 287.5q0 148 56.5 281t153.5 229t232.5 152t288.5 56q240 0 427 -126l-177 -224q-109 79 -250 79q-185 0 -302.5 -128t-117.5 -319
q0 -186 117.5 -316t302.5 -130q157 0 266 92.5t143 247.5q3 11 7 35h-416v276z" />
    <glyph glyph-name="H" unicode="H" horiz-adv-x="1513" 
d="M1077 1434h300v-1434h-300v645h-643v-645h-299v1434h299v-512h643v512z" />
    <glyph glyph-name="I" unicode="I" horiz-adv-x="574" 
d="M135 0v1434h300v-1434h-300z" />
    <glyph glyph-name="J" unicode="J" horiz-adv-x="851" 
d="M438 1434h299v-965q0 -195 -137 -332t-332 -137q-122 0 -228 60l146 261q38 -21 82 -21q70 0 120 50t50 120v964z" />
    <glyph glyph-name="K" unicode="K" horiz-adv-x="1450" 
d="M879 1435h356l-429 -454l571 -981h-324l-448 769l-171 -182v-587h-300v1435h300v-471z" />
    <glyph glyph-name="L" unicode="L" horiz-adv-x="1183" 
d="M134 1435h300v-1158h709v-277h-1009v1435z" />
    <glyph glyph-name="M" unicode="M" horiz-adv-x="1815" 
d="M1534 1433h150v-1433h-299v894l-478 -545l-478 545v-894h-299v1433h150l627 -717z" />
    <glyph glyph-name="N" unicode="N" horiz-adv-x="1580" 
d="M1146 1433h300v-1433h-150l-864 904v-904h-299v1433h150l863 -904v904z" />
    <glyph glyph-name="O" unicode="O" 
d="M394 717q0 -122 51 -223t148 -162t221 -61q129 0 226 61.5t145 162t48 222.5q0 197 -119.5 321.5t-299.5 124.5q-192 0 -306 -129t-114 -317zM83 717q0 200 97 365t264.5 258.5t369.5 93.5q160 0 297.5 -57.5t232 -155t148 -228.5t53.5 -276q0 -156 -58 -290.5
t-157 -227.5t-233 -146t-283 -53q-159 0 -296.5 57t-232 154t-148.5 228.5t-54 277.5z" />
    <glyph glyph-name="P" unicode="P" horiz-adv-x="1337" 
d="M432 851h393q70 0 124.5 41t54.5 112q0 69 -53.5 111t-126.5 42h-392v-306zM133 1433h729q186 0 310.5 -118.5t124.5 -310.5q0 -182 -124.5 -302.5t-310.5 -120.5h-430v-581h-299v1433z" />
    <glyph glyph-name="Q" unicode="Q" horiz-adv-x="1608" 
d="M372 717q0 -120 50 -221t147 -163t223 -62q180 0 300 128t120 318q0 120 -49.5 221t-147 163.5t-223.5 62.5q-185 0 -302.5 -128t-117.5 -319zM792 1434q148 0 283 -55t233.5 -149t156.5 -228t58 -285q0 -274 -187 -479l177 -240l-241 -178l-181 247q-159 -67 -299 -67
q-148 0 -282.5 55t-233 149t-157 228t-58.5 285q0 198 96 362.5t264 259.5t371 95z" />
    <glyph glyph-name="R" unicode="R" horiz-adv-x="1458" 
d="M431 1157v-306h393q70 0 124.5 41t54.5 112q0 69 -53.5 111t-126.5 42h-392zM1373 0h-336l-340 581h-266v-581h-299v1433h729q186 0 310.5 -118.5t124.5 -310.5q0 -142 -70 -243t-209 -152z" />
    <glyph glyph-name="S" unicode="S" horiz-adv-x="1315" 
d="M76 250l183 204q94 -91 205 -135.5t216 -44.5q111 -1 185 44.5t74 117.5q0 41 -29 70t-78 46t-112.5 30.5t-134 27t-141 30.5t-134 46.5t-112.5 69.5t-78 104t-29 147q0 104 40.5 186.5t111 134t162 78.5t196.5 27q135 0 273 -43.5t255 -126.5l-170 -208
q-67 49 -166 78.5t-191 29.5q-96 0 -155.5 -33t-59.5 -101q0 -54 47 -88t121.5 -51t165 -31.5t181 -40.5t165 -67t121.5 -121t47 -193q0 -123 -72.5 -223.5t-197.5 -156.5t-276 -56q-152 0 -310 61t-303 188z" />
    <glyph glyph-name="T" unicode="T" horiz-adv-x="1351" 
d="M54 1435h1243v-277h-472v-1158h-300v1158h-471v277z" />
    <glyph glyph-name="U" unicode="U" horiz-adv-x="1462" 
d="M1052 1435h300v-778q0 -185 -75 -333.5t-217.5 -236t-329.5 -87.5q-182 0 -324.5 86t-219.5 235.5t-77 335.5v778h300v-764q0 -59 11.5 -114.5t37 -107t62.5 -89.5t91 -60.5t120 -22.5q152 0 236.5 114.5t84.5 279.5v764z" />
    <glyph glyph-name="V" unicode="V" horiz-adv-x="1572" 
d="M1196 1435h324l-580 -1435h-307l-581 1435h324l410 -1041z" />
    <glyph glyph-name="W" unicode="W" horiz-adv-x="2086" 
d="M1687 1435h317l-383 -1435h-303l-275 1018l-275 -1018h-303l-383 1435h317l249 -940l248 940h294l248 -940z" />
    <glyph glyph-name="X" unicode="X" horiz-adv-x="1627" 
d="M1126 1436h351l-488 -678l546 -758h-352l-370 513l-370 -513h-351l546 758l-489 678h352l312 -433z" />
    <glyph glyph-name="Y" unicode="Y" horiz-adv-x="1404" 
d="M1018 1433h336l-503 -892v-541h-299v541l-502 892h336l316 -593z" />
    <glyph glyph-name="Z" unicode="Z" horiz-adv-x="1373" 
d="M128 1435h1116v-138l-705 -1020h705v-277h-1116v138l705 1020h-705v277z" />
    <glyph glyph-name="bracketleft" unicode="[" horiz-adv-x="801" 
d="M130 1707h571v-276h-286v-1442h286v-276h-571v1994z" />
    <glyph glyph-name="backslash" unicode="\" horiz-adv-x="1308" 
d="M40 1708h315l913 -1995h-315z" />
    <glyph glyph-name="bracketright" unicode="]" horiz-adv-x="801" 
d="M98 1707h571v-1994h-571v276h285v1442h-285v276z" />
    <glyph glyph-name="asciicircum" unicode="^" horiz-adv-x="852" 
d="M1 814l310 700h231l309 -700h-245l-180 408l-180 -408h-245z" />
    <glyph glyph-name="underscore" unicode="_" horiz-adv-x="1425" 
d="M95 -373v267h1234v-267h-1234z" />
    <glyph glyph-name="grave" unicode="`" horiz-adv-x="626" 
d="M308 1891l127 -327h-201l-221 327h295z" />
    <glyph glyph-name="a" unicode="a" horiz-adv-x="1539" 
d="M622 1434h296l568 -1434h-295l-87 217h-669l-86 -217h-296zM770 1085l-228 -597h455z" />
    <glyph glyph-name="b" unicode="b" horiz-adv-x="1381" 
d="M435 271h392q71 0 125.5 44t54.5 121q0 73 -53 118.5t-126 45.5h-393v-329zM713 1166h-278v-314h299q64 7 111 49t47 108q0 70 -52.5 113.5t-126.5 43.5zM1165 1004q0 -120 -89 -230q101 -57 162.5 -144.5t61.5 -199.5q0 -192 -123.5 -311t-311.5 -119h-729v1433h595
q185 0 309.5 -118.5t124.5 -310.5z" />
    <glyph glyph-name="c" unicode="c" horiz-adv-x="1584" 
d="M1227 591l285 -88q-64 -225 -257 -364t-439 -139q-148 0 -282.5 55t-233 149.5t-157 228t-58.5 284.5q0 148 56.5 281t153.5 229t232.5 152t288.5 56q159 0 300 -59.5t245.5 -174.5t150.5 -270l-285 -87q-39 142 -151 231t-260 89q-185 0 -302.5 -128t-117.5 -319
q0 -186 117.5 -316t302.5 -130q150 0 260 86t151 234z" />
    <glyph glyph-name="d" unicode="d" horiz-adv-x="1475" 
d="M665 270q180 0 300 128t120 318q0 120 -49.5 221t-147 163.5t-223.5 62.5h-230v-893h230zM665 1433q198 0 365.5 -93t266.5 -258t99 -366q0 -198 -97.5 -363t-265.5 -259t-368 -94h-529v1433h529z" />
    <glyph glyph-name="e" unicode="e" horiz-adv-x="1198" 
d="M136 1434h1009v-276h-709v-236h528v-276h-528v-370h709v-276h-1009v1434z" />
    <glyph glyph-name="f" unicode="f" horiz-adv-x="1184" 
d="M135 1434h1009v-276h-709v-236h528v-276h-528v-646h-300v1434z" />
    <glyph glyph-name="g" unicode="g" horiz-adv-x="1616" 
d="M816 922h704q28 -97 28 -205q0 -198 -96 -362.5t-264.5 -259.5t-371.5 -95q-147 0 -281.5 54t-233.5 147.5t-157.5 228t-58.5 287.5q0 148 56.5 281t153.5 229t232.5 152t288.5 56q240 0 427 -126l-177 -224q-109 79 -250 79q-185 0 -302.5 -128t-117.5 -319
q0 -186 117.5 -316t302.5 -130q157 0 266 92.5t143 247.5q3 11 7 35h-416v276z" />
    <glyph glyph-name="h" unicode="h" horiz-adv-x="1513" 
d="M1077 1434h300v-1434h-300v645h-643v-645h-299v1434h299v-512h643v512z" />
    <glyph glyph-name="i" unicode="i" horiz-adv-x="574" 
d="M135 0v1434h300v-1434h-300z" />
    <glyph glyph-name="j" unicode="j" horiz-adv-x="851" 
d="M438 1434h299v-965q0 -195 -137 -332t-332 -137q-122 0 -228 60l146 261q38 -21 82 -21q70 0 120 50t50 120v964z" />
    <glyph glyph-name="k" unicode="k" horiz-adv-x="1450" 
d="M879 1435h356l-429 -454l571 -981h-324l-448 769l-171 -182v-587h-300v1435h300v-471z" />
    <glyph glyph-name="l" unicode="l" horiz-adv-x="1183" 
d="M134 1435h300v-1158h709v-277h-1009v1435z" />
    <glyph glyph-name="m" unicode="m" horiz-adv-x="1815" 
d="M1534 1433h150v-1433h-299v894l-478 -545l-478 545v-894h-299v1433h150l627 -717z" />
    <glyph glyph-name="n" unicode="n" horiz-adv-x="1580" 
d="M1146 1433h300v-1433h-150l-864 904v-904h-299v1433h150l863 -904v904z" />
    <glyph glyph-name="o" unicode="o" 
d="M394 717q0 -122 51 -223t148 -162t221 -61q129 0 226 61.5t145 162t48 222.5q0 197 -119.5 321.5t-299.5 124.5q-192 0 -306 -129t-114 -317zM83 717q0 200 97 365t264.5 258.5t369.5 93.5q160 0 297.5 -57.5t232 -155t148 -228.5t53.5 -276q0 -156 -58 -290.5
t-157 -227.5t-233 -146t-283 -53q-159 0 -296.5 57t-232 154t-148.5 228.5t-54 277.5z" />
    <glyph glyph-name="p" unicode="p" horiz-adv-x="1337" 
d="M432 851h393q70 0 124.5 41t54.5 112q0 69 -53.5 111t-126.5 42h-392v-306zM133 1433h729q186 0 310.5 -118.5t124.5 -310.5q0 -182 -124.5 -302.5t-310.5 -120.5h-430v-581h-299v1433z" />
    <glyph glyph-name="q" unicode="q" horiz-adv-x="1608" 
d="M372 717q0 -120 50 -221t147 -163t223 -62q180 0 300 128t120 318q0 120 -49.5 221t-147 163.5t-223.5 62.5q-185 0 -302.5 -128t-117.5 -319zM792 1434q148 0 283 -55t233.5 -149t156.5 -228t58 -285q0 -274 -187 -479l177 -240l-241 -178l-181 247q-159 -67 -299 -67
q-148 0 -282.5 55t-233 149t-157 228t-58.5 285q0 198 96 362.5t264 259.5t371 95z" />
    <glyph glyph-name="r" unicode="r" horiz-adv-x="1458" 
d="M431 1157v-306h393q70 0 124.5 41t54.5 112q0 69 -53.5 111t-126.5 42h-392zM1373 0h-336l-340 581h-266v-581h-299v1433h729q186 0 310.5 -118.5t124.5 -310.5q0 -142 -70 -243t-209 -152z" />
    <glyph glyph-name="s" unicode="s" horiz-adv-x="1315" 
d="M76 250l183 204q94 -91 205 -135.5t216 -44.5q111 -1 185 44.5t74 117.5q0 41 -29 70t-78 46t-112.5 30.5t-134 27t-141 30.5t-134 46.5t-112.5 69.5t-78 104t-29 147q0 104 40.5 186.5t111 134t162 78.5t196.5 27q135 0 273 -43.5t255 -126.5l-170 -208
q-67 49 -166 78.5t-191 29.5q-96 0 -155.5 -33t-59.5 -101q0 -54 47 -88t121.5 -51t165 -31.5t181 -40.5t165 -67t121.5 -121t47 -193q0 -123 -72.5 -223.5t-197.5 -156.5t-276 -56q-152 0 -310 61t-303 188z" />
    <glyph glyph-name="t" unicode="t" horiz-adv-x="1351" 
d="M54 1435h1243v-277h-472v-1158h-300v1158h-471v277z" />
    <glyph glyph-name="u" unicode="u" horiz-adv-x="1462" 
d="M1052 1435h300v-778q0 -185 -75 -333.5t-217.5 -236t-329.5 -87.5q-182 0 -324.5 86t-219.5 235.5t-77 335.5v778h300v-764q0 -59 11.5 -114.5t37 -107t62.5 -89.5t91 -60.5t120 -22.5q152 0 236.5 114.5t84.5 279.5v764z" />
    <glyph glyph-name="v" unicode="v" horiz-adv-x="1572" 
d="M1196 1435h324l-580 -1435h-307l-581 1435h324l410 -1041z" />
    <glyph glyph-name="w" unicode="w" horiz-adv-x="2086" 
d="M1687 1435h317l-383 -1435h-303l-275 1018l-275 -1018h-303l-383 1435h317l249 -940l248 940h294l248 -940z" />
    <glyph glyph-name="x" unicode="x" horiz-adv-x="1627" 
d="M1126 1436h351l-488 -678l546 -758h-352l-370 513l-370 -513h-351l546 758l-489 678h352l312 -433z" />
    <glyph glyph-name="y" unicode="y" horiz-adv-x="1404" 
d="M1018 1433h336l-503 -892v-541h-299v541l-502 892h336l316 -593z" />
    <glyph glyph-name="z" unicode="z" horiz-adv-x="1373" 
d="M128 1435h1116v-138l-705 -1020h705v-277h-1116v138l705 1020h-705v277z" />
    <glyph glyph-name="braceleft" unicode="{" horiz-adv-x="852" 
d="M376 717q42 -26 69.5 -83t35.5 -107.5t8 -96.5v-262q0 -53 42 -91.5t95 -54.5t104 -16v-282q-145 0 -266 54t-193.5 156.5t-72.5 233.5v280q0 68 -38.5 98.5t-115.5 34.5v272q154 0 154 134v279q0 104 47 190t123.5 140.5t170 84t191.5 29.5v-281q-52 0 -105 -15.5
t-95 -54.5t-42 -93v-262q0 -78 -25.5 -161.5t-86.5 -125.5z" />
    <glyph glyph-name="bar" unicode="|" horiz-adv-x="550" 
d="M130 -287v1995h286v-1995h-286z" />
    <glyph glyph-name="braceright" unicode="}" horiz-adv-x="850" 
d="M474 717q-61 42 -86.5 125.5t-25.5 161.5v262q0 54 -42 93t-95 54.5t-105 15.5v281q98 0 191.5 -29.5t170 -84t123.5 -140.5t47 -190v-279q0 -134 154 -134v-272q-77 -4 -115.5 -34.5t-38.5 -98.5v-280q0 -131 -72.5 -233.5t-193.5 -156.5t-266 -54v282q51 0 104 16
t95 54.5t42 91.5v262q0 46 8 96.5t35.5 107.5t69.5 83z" />
    <glyph glyph-name="asciitilde" unicode="~" horiz-adv-x="926" 
d="M212 555l-154 150q72 75 136 112.5t110.5 40.5t89 -8t79.5 -27t73 -24t79 8t89 64l155 -149q-72 -75 -136 -112.5t-110.5 -40.5t-89 7.5t-80 27t-73.5 24t-79 -8.5t-89 -64z" />
    <glyph glyph-name="exclamdown" unicode="&#xa1;" horiz-adv-x="533" 
d="M396 597l19 -1019h-300l19 1019h262zM415 862q0 -62 -45 -106t-105 -44q-62 0 -106 45t-44 105q0 62 45 106t105 44q62 0 106 -45t44 -105z" />
    <glyph glyph-name="cent" unicode="&#xa2;" horiz-adv-x="1096" 
d="M558 251q87 0 145.5 49t80.5 136l266 -82q-36 -128 -134.5 -218.5t-233.5 -121.5v-211h-246v211q-170 39 -282 172.5t-112 318.5t109.5 320t284.5 173v210h246v-210q132 -29 230.5 -118t137.5 -224l-266 -80q-19 82 -79.5 133t-146.5 51q-107 0 -169.5 -72t-62.5 -183
q0 -106 63.5 -180t168.5 -74z" />
    <glyph glyph-name="sterling" unicode="&#xa3;" horiz-adv-x="1097" 
d="M45 596v265h167q-22 94 -22 151q0 152 66.5 254t183.5 144t281.5 24.5t355.5 -96.5l-100 -226q-98 37 -177 53.5t-128.5 15t-86.5 -17.5t-54.5 -35t-28 -47.5t-12 -44.5t-1.5 -35q0 -52 19 -140h402v-265h-357q5 -197 -134 -318h636v-278h-1010v278q120 68 169 147
t49 171h-218z" />
    <glyph glyph-name="currency" unicode="&#xa4;" horiz-adv-x="1286" 
d="M1163 507q0 -146 -72 -263l134 -134l-186 -185l-139 139q-118 -63 -258 -63q-139 0 -257 63l-139 -139l-185 185l133 133q-73 118 -73 264q0 145 73 263l-133 134l185 185l139 -139q118 63 257 63q140 0 258 -63l139 139l186 -185l-134 -134q72 -119 72 -263zM396 507
q0 -106 71 -178.5t175 -72.5q105 0 176 72t71 179t-71 179t-176 72q-104 0 -175 -72.5t-71 -178.5z" />
    <glyph glyph-name="yen" unicode="&#xa5;" horiz-adv-x="1404" 
d="M1018 1433h336l-383 -678h181v-218h-301v-100h301v-215h-301v-222h-299v222h-300v215h300v100h-300v218h179l-381 678h336l316 -593z" />
    <glyph glyph-name="section" unicode="&#xa7;" horiz-adv-x="1240" 
d="M1173 725q0 -132 -133 -238q128 -96 128 -280q0 -182 -151.5 -303t-374.5 -121q-146 0 -297.5 59.5t-292.5 182.5l176 198q90 -89 196.5 -132t208.5 -43q108 0 179.5 43.5t71.5 113.5q0 44 -35 74.5t-92.5 46t-131 31.5t-150 29.5t-150 42t-131 67t-92.5 106t-35 157.5
q0 131 134 237q-130 97 -130 282q0 119 70 216t190.5 151.5t266.5 54.5t298 -59t292 -181l-176 -198q-91 88 -198 131t-208 43q-107 1 -178 -43.5t-71 -113.5q0 -39 28 -67.5t75 -45t108.5 -29.5l129 -26t135 -29.5t129 -45t108.5 -67.5t75 -101.5t28 -142.5zM351 780
q0 -33 19 -58.5t47 -41t76 -29t90 -21l105 -19t106 -21.5q94 31 94 114q0 34 -19 59t-47 40.5t-76 29t-89.5 21l-104.5 19t-106 21.5q-95 -30 -95 -114z" />
    <glyph glyph-name="dieresis" unicode="&#xa8;" horiz-adv-x="1224" 
d="M992 1693q0 -60 -44 -105t-106 -45q-60 0 -105 44t-45 106q0 60 44 105t106 45q60 0 105 -44t45 -106zM580 1693q0 -60 -44 -105t-106 -45q-60 0 -105 44t-45 106q0 60 44 105t106 45q60 0 105 -44t45 -106z" />
    <glyph glyph-name="copyright" unicode="&#xa9;" horiz-adv-x="1924" 
d="M1644 861q0 187 -89.5 341t-245.5 245t-348 98q-135 0 -260.5 -53.5t-218.5 -144t-148.5 -218t-55.5 -268.5q0 -180 90 -337t248 -251.5t345 -94.5q134 0 259.5 53.5t219 144t149.5 218t55 267.5zM1879 861q0 -183 -73.5 -352t-196.5 -293t-293 -198t-355 -74
q-183 0 -352.5 73.5t-293 196.5t-197.5 293t-74 354q0 183 73 352.5t196 293.5t293 198t355 74q146 0 284.5 -46.5t252.5 -132t200.5 -198t134 -253t46.5 -288.5zM1444 1005l-250 -78q-20 79 -75 127t-138 48q-110 0 -170.5 -63.5t-60.5 -177.5q0 -109 59.5 -175t171.5 -66
q80 0 135 46t78 129l250 -76q-43 -154 -169 -244t-294 -90q-140 0 -254 55.5t-183 165.5t-69 255q0 214 142.5 345.5t363.5 131.5q161 0 287.5 -87t175.5 -246z" />
    <glyph glyph-name="guillemotleft" unicode="&#xab;" horiz-adv-x="1231" 
d="M339 992h308l-277 -407l277 -407h-308l-268 407zM815 992h308l-277 -407l277 -407h-308l-268 407z" />
    <glyph glyph-name="uni00AD" unicode="&#xad;" horiz-adv-x="1043" 
d="M130 448v274h781v-274h-781z" />
    <glyph glyph-name="registered" unicode="&#xae;" horiz-adv-x="1923" 
d="M1644 861q0 187 -89.5 341t-245.5 245t-348 98q-135 0 -260.5 -53.5t-218.5 -144t-148.5 -218t-55.5 -268.5q0 -180 90 -337t248 -251.5t345 -94.5q134 0 259.5 53.5t219 144t149.5 218t55 267.5zM1879 861q0 -182 -71.5 -350.5t-193.5 -293t-293 -199t-360 -74.5
q-182 0 -350.5 71.5t-293 193t-199 292.5t-74.5 360q0 182 72 350.5t194 293.5t292.5 199.5t358.5 74.5q121 0 237.5 -32t217.5 -90t187 -142t146.5 -184.5t95 -221t34.5 -248.5zM812 1091v-117h235q83 0 83 59q0 58 -83 58h-235zM549 1333h533q133 0 219 -81.5t86 -218.5
q0 -189 -173 -270l188 -382h-294l-175 358h-121v-358h-263v952z" />
    <glyph glyph-name="acute" unicode="&#xb4;" horiz-adv-x="626" 
d="M179 1560l127 327h295l-221 -327h-201z" />
    <glyph glyph-name="mu" unicode="&#xb5;" horiz-adv-x="1155" 
d="M839 1012h276v-1012h-276v112q-112 -112 -291 -112q-74 0 -176 50v-660h-277v1622h277v-506q0 -106 67 -178.5t167 -72.5t166.5 72.5t66.5 178.5v506z" />
    <glyph glyph-name="paragraph" unicode="&#xb6;" horiz-adv-x="1202" 
d="M1106 1434v-1434h-285v1153h-107v-1153h-282v599q-175 1 -296 122.5t-121 295.5q0 173 121 294.5t296 122.5h674z" />
    <glyph glyph-name="cedilla" unicode="&#xb8;" horiz-adv-x="635" 
d="M328 -63q167 -14 232 -100q51 -67 13 -140q-41 -80 -162 -112q-151 -39 -362 19l41 154q196 -44 274 -10q40 18 20 45q-27 37 -127 47q-26 3 -54 3v192h125v-98z" />
    <glyph glyph-name="guillemotright" unicode="&#xbb;" horiz-adv-x="1231" 
d="M584 992h308l268 -407l-268 -407h-308l277 407zM108 992h308l268 -407l-268 -407h-308l277 407z" />
    <glyph glyph-name="questiondown" unicode="&#xbf;" horiz-adv-x="1054" 
d="M671 860q0 -62 -45 -106t-105 -44q-62 0 -106 45t-44 105q0 62 45 106t105 44q62 0 106 -45t44 -105zM386 595h270q0 -177 -114 -298q-19 -23 -59 -56l-68 -57t-51 -64t-23 -85q0 -77 50.5 -130t129.5 -53q77 0 127.5 52t52.5 131h299q-1 -97 -38 -182t-100.5 -146
t-152 -96t-188.5 -35q-130 0 -238 56t-173 162t-65 241q0 26 5 51t10.5 45.5t20 45l23 39.5t30.5 39.5l32 36t38 37t37 33l41.5 35l39.5 33.5q64 55 64 165z" />
    <glyph glyph-name="Agrave" unicode="&#xc0;" horiz-adv-x="1539" 
d="M622 1434h296l568 -1434h-295l-87 217h-669l-86 -217h-296zM770 1085l-228 -597h455zM766 1890l127 -327h-201l-221 327h295z" />
    <glyph glyph-name="Aacute" unicode="&#xc1;" horiz-adv-x="1539" 
d="M622 1434h296l568 -1434h-295l-87 217h-669l-86 -217h-296zM770 1085l-228 -597h455zM655 1559l127 327h295l-221 -327h-201z" />
    <glyph glyph-name="Acircumflex" unicode="&#xc2;" horiz-adv-x="1539" 
d="M622 1434h296l568 -1434h-295l-87 217h-669l-86 -217h-296zM770 1085l-228 -597h455zM1108 1559h-232l-111 125l-107 -125h-229l218 282h241z" />
    <glyph glyph-name="Atilde" unicode="&#xc3;" horiz-adv-x="1539" 
d="M622 1434h296l568 -1434h-295l-87 217h-669l-86 -217h-296zM770 1085l-228 -597h455zM533 1554l-142 136q70 63 131.5 93.5t105.5 32t83.5 -9.5t74.5 -26.5t69 -23.5t74.5 5t85.5 53l143 -135q-70 -63 -131.5 -94t-106 -32t-84 10t-74.5 26t-69 23t-74.5 -5t-85.5 -53z
" />
    <glyph glyph-name="Adieresis" unicode="&#xc4;" horiz-adv-x="1539" 
d="M622 1434h296l568 -1434h-295l-87 217h-669l-86 -217h-296zM770 1085l-228 -597h455zM713 1692q0 -60 -44 -105t-106 -45q-60 0 -105 44t-45 106q0 60 44 105t106 45q60 0 105 -44t45 -106zM1125 1692q0 -60 -44 -105t-106 -45q-60 0 -105 44t-45 106q0 60 44 105t106 45
q60 0 105 -44t45 -106z" />
    <glyph glyph-name="Aring" unicode="&#xc5;" horiz-adv-x="1539" 
d="M622 1434h296l568 -1434h-295l-87 217h-669l-86 -217h-296zM770 1085l-228 -597h455zM1001 1748q0 -95 -68 -162.5t-163 -67.5t-163 67.5t-68 162.5t68 162.5t163 67.5t163 -67.5t68 -162.5zM770 1823q-32 0 -54 -21.5t-22 -53.5t22 -54t54 -22t54 22t22 54t-22 53.5
t-54 21.5z" />
    <glyph glyph-name="AE" unicode="&#xc6;" horiz-adv-x="1930" 
d="M1888 1159h-709v-236h527v-276h-527v-371h709v-276h-1010v217h-432l-102 -217h-327l676 1435h1195v-276zM573 489h305v673z" />
    <glyph glyph-name="Ccedilla" unicode="&#xc7;" horiz-adv-x="1584" 
d="M870 -46q167 -14 232 -100q51 -67 13 -140q-41 -80 -162 -112q-151 -39 -362 19l41 154q196 -44 274 -10q40 18 20 45q-27 37 -127 47q-26 3 -54 3v143q-136 13 -257.5 72.5t-210.5 152.5t-140.5 220t-51.5 269q0 148 56.5 281t153.5 229t232.5 152t288.5 56
q159 0 300 -59.5t245.5 -174.5t150.5 -270l-285 -87q-39 142 -151 231t-260 89q-185 0 -302.5 -128t-117.5 -319q0 -186 117.5 -316t302.5 -130q150 0 260 86t151 234l285 -88q-61 -213 -237 -349t-405 -152v-48z" />
    <glyph glyph-name="Egrave" unicode="&#xc8;" horiz-adv-x="1198" 
d="M136 1434h1009v-276h-709v-236h528v-276h-528v-370h709v-276h-1009v1434zM622 1892l127 -327h-201l-221 327h295z" />
    <glyph glyph-name="Eacute" unicode="&#xc9;" horiz-adv-x="1198" 
d="M136 1434h1009v-276h-709v-236h528v-276h-528v-370h709v-276h-1009v1434zM511 1561l127 327h295l-221 -327h-201z" />
    <glyph glyph-name="Ecircumflex" unicode="&#xca;" horiz-adv-x="1198" 
d="M136 1434h1009v-276h-709v-236h528v-276h-528v-370h709v-276h-1009v1434zM987 1559h-232l-111 125l-107 -125h-229l218 282h241z" />
    <glyph glyph-name="Edieresis" unicode="&#xcb;" horiz-adv-x="1198" 
d="M136 1434h1009v-276h-709v-236h528v-276h-528v-370h709v-276h-1009v1434zM569 1694q0 -60 -44 -105t-106 -45q-60 0 -105 44t-45 106q0 60 44 105t106 45q60 0 105 -44t45 -106zM981 1694q0 -60 -44 -105t-106 -45q-60 0 -105 44t-45 106q0 60 44 105t106 45
q60 0 105 -44t45 -106z" />
    <glyph glyph-name="Igrave" unicode="&#xcc;" horiz-adv-x="574" 
d="M135 0v1434h300v-1434h-300zM278 1889l127 -327h-201l-221 327h295z" />
    <glyph glyph-name="Iacute" unicode="&#xcd;" horiz-adv-x="574" 
d="M135 0v1434h300v-1434h-300zM167 1558l127 327h295l-221 -327h-201z" />
    <glyph glyph-name="Icircumflex" unicode="&#xce;" horiz-adv-x="574" 
d="M135 0v1434h300v-1434h-300zM621 1559h-232l-111 125l-107 -125h-229l218 282h241z" />
    <glyph glyph-name="Idieresis" unicode="&#xcf;" horiz-adv-x="574" 
d="M135 0v1434h300v-1434h-300zM225 1691q0 -60 -44 -105t-106 -45q-60 0 -105 44t-45 106q0 60 44 105t106 45q60 0 105 -44t45 -106zM637 1691q0 -60 -44 -105t-106 -45q-60 0 -105 44t-45 106q0 60 44 105t106 45q60 0 105 -44t45 -106z" />
    <glyph glyph-name="Eth" unicode="&#xd0;" horiz-adv-x="1517" 
d="M22 581v274h156v578h529q198 0 365.5 -93t266.5 -258t99 -366q0 -198 -97.5 -363t-265.5 -259t-368 -94h-529v581h-156zM707 270q180 0 300 128t120 318q0 120 -49.5 221t-147 163.5t-223.5 62.5h-230v-308h372v-274h-372v-311h230z" />
    <glyph glyph-name="Ntilde" unicode="&#xd1;" horiz-adv-x="1580" 
d="M1146 1433h300v-1433h-150l-864 904v-904h-299v1433h150l863 -904v904zM544 1555l-142 136q70 63 131.5 93.5t105.5 32t83.5 -9.5t74.5 -26.5t69 -23.5t74.5 5t85.5 53l143 -135q-70 -63 -131.5 -94t-106 -32t-84 10t-74.5 26t-69 23t-74.5 -5t-85.5 -53z" />
    <glyph glyph-name="Ograve" unicode="&#xd2;" 
d="M394 717q0 -122 51 -223t148 -162t221 -61q129 0 226 61.5t145 162t48 222.5q0 197 -119.5 321.5t-299.5 124.5q-192 0 -306 -129t-114 -317zM83 717q0 200 97 365t264.5 258.5t369.5 93.5q160 0 297.5 -57.5t232 -155t148 -228.5t53.5 -276q0 -156 -58 -290.5
t-157 -227.5t-233 -146t-283 -53q-159 0 -296.5 57t-232 154t-148.5 228.5t-54 277.5zM809 1892l127 -327h-201l-221 327h295z" />
    <glyph glyph-name="Oacute" unicode="&#xd3;" 
d="M83 717q0 200 97 365t264.5 258.5t369.5 93.5q160 0 297.5 -57.5t232 -155t148 -228.5t53.5 -276q0 -156 -58 -290.5t-157 -227.5t-233 -146t-283 -53q-159 0 -296.5 57t-232 154t-148.5 228.5t-54 277.5zM394 717q0 -122 51 -223t148 -162t221 -61q129 0 226 61.5
t145 162t48 222.5q0 197 -119.5 321.5t-299.5 124.5q-192 0 -306 -129t-114 -317zM698 1561l127 327h295l-221 -327h-201z" />
    <glyph glyph-name="Ocircumflex" unicode="&#xd4;" 
d="M394 717q0 -122 51 -223t148 -162t221 -61q129 0 226 61.5t145 162t48 222.5q0 197 -119.5 321.5t-299.5 124.5q-192 0 -306 -129t-114 -317zM83 717q0 200 97 365t264.5 258.5t369.5 93.5q160 0 297.5 -57.5t232 -155t148 -228.5t53.5 -276q0 -156 -58 -290.5
t-157 -227.5t-233 -146t-283 -53q-159 0 -296.5 57t-232 154t-148.5 228.5t-54 277.5zM1163 1559h-232l-111 125l-107 -125h-229l218 282h241z" />
    <glyph glyph-name="Otilde" unicode="&#xd5;" 
d="M394 717q0 -122 51 -223t148 -162t221 -61q129 0 226 61.5t145 162t48 222.5q0 197 -119.5 321.5t-299.5 124.5q-192 0 -306 -129t-114 -317zM83 717q0 200 97 365t264.5 258.5t369.5 93.5q160 0 297.5 -57.5t232 -155t148 -228.5t53.5 -276q0 -156 -58 -290.5
t-157 -227.5t-233 -146t-283 -53q-159 0 -296.5 57t-232 154t-148.5 228.5t-54 277.5zM576 1556l-142 136q70 63 131.5 93.5t105.5 32t83.5 -9.5t74.5 -26.5t69 -23.5t74.5 5t85.5 53l143 -135q-70 -63 -131.5 -94t-106 -32t-84 10t-74.5 26t-69 23t-74.5 -5t-85.5 -53z" />
    <glyph glyph-name="Odieresis" unicode="&#xd6;" 
d="M394 717q0 -122 51 -223t148 -162t221 -61q129 0 226 61.5t145 162t48 222.5q0 197 -119.5 321.5t-299.5 124.5q-192 0 -306 -129t-114 -317zM83 717q0 200 97 365t264.5 258.5t369.5 93.5q160 0 297.5 -57.5t232 -155t148 -228.5t53.5 -276q0 -156 -58 -290.5
t-157 -227.5t-233 -146t-283 -53q-159 0 -296.5 57t-232 154t-148.5 228.5t-54 277.5zM756 1694q0 -60 -44 -105t-106 -45q-60 0 -105 44t-45 106q0 60 44 105t106 45q60 0 105 -44t45 -106zM1168 1694q0 -60 -44 -105t-106 -45q-60 0 -105 44t-45 106q0 60 44 105t106 45
q60 0 105 -44t45 -106z" />
    <glyph glyph-name="multiply" unicode="&#xd7;" horiz-adv-x="968" 
d="M484 773l218 218l188 -188l-218 -218l218 -218l-188 -188l-218 218l-218 -218l-188 188l218 218l-218 218l188 188z" />
    <glyph glyph-name="Oslash" unicode="&#xd8;" 
d="M83 717q0 200 97 365t264.5 258.5t369.5 93.5q113 0 215 -29l83 152h315l-150 -277q127 -99 197.5 -247t70.5 -316q0 -156 -58 -290.5t-157 -227.5t-233 -146t-283 -53q-114 0 -216 29l-85 -158h-316l153 283q-127 100 -197 247t-70 316zM1233 717q0 177 -100 299
l-400 -738q36 -7 81 -7q129 0 226 61.5t145 162t48 222.5zM394 717q0 -173 100 -298l400 736q-42 8 -80 8q-192 0 -306 -129t-114 -317z" />
    <glyph glyph-name="Ugrave" unicode="&#xd9;" horiz-adv-x="1462" 
d="M1052 1435h300v-778q0 -185 -75 -333.5t-217.5 -236t-329.5 -87.5q-182 0 -324.5 86t-219.5 235.5t-77 335.5v778h300v-764q0 -59 11.5 -114.5t37 -107t62.5 -89.5t91 -60.5t120 -22.5q152 0 236.5 114.5t84.5 279.5v764zM726 1890l127 -327h-201l-221 327h295z" />
    <glyph glyph-name="Uacute" unicode="&#xda;" horiz-adv-x="1462" 
d="M1052 1435h300v-778q0 -185 -75 -333.5t-217.5 -236t-329.5 -87.5q-182 0 -324.5 86t-219.5 235.5t-77 335.5v778h300v-764q0 -59 11.5 -114.5t37 -107t62.5 -89.5t91 -60.5t120 -22.5q152 0 236.5 114.5t84.5 279.5v764zM615 1559l127 327h295l-221 -327h-201z" />
    <glyph glyph-name="Ucircumflex" unicode="&#xdb;" horiz-adv-x="1462" 
d="M1052 1435h300v-778q0 -185 -75 -333.5t-217.5 -236t-329.5 -87.5q-182 0 -324.5 86t-219.5 235.5t-77 335.5v778h300v-764q0 -59 11.5 -114.5t37 -107t62.5 -89.5t91 -60.5t120 -22.5q152 0 236.5 114.5t84.5 279.5v764zM1073 1558h-232l-111 125l-107 -125h-229
l218 282h241z" />
    <glyph glyph-name="Udieresis" unicode="&#xdc;" horiz-adv-x="1462" 
d="M1052 1435h300v-778q0 -185 -75 -333.5t-217.5 -236t-329.5 -87.5q-182 0 -324.5 86t-219.5 235.5t-77 335.5v778h300v-764q0 -59 11.5 -114.5t37 -107t62.5 -89.5t91 -60.5t120 -22.5q152 0 236.5 114.5t84.5 279.5v764zM673 1692q0 -60 -44 -105t-106 -45
q-60 0 -105 44t-45 106q0 60 44 105t106 45q60 0 105 -44t45 -106zM1085 1692q0 -60 -44 -105t-106 -45q-60 0 -105 44t-45 106q0 60 44 105t106 45q60 0 105 -44t45 -106z" />
    <glyph glyph-name="Yacute" unicode="&#xdd;" horiz-adv-x="1404" 
d="M1018 1433h336l-503 -892v-541h-299v541l-502 892h336l316 -593zM586 1559l127 327h295l-221 -327h-201z" />
    <glyph glyph-name="Thorn" unicode="&#xde;" horiz-adv-x="1337" 
d="M860 1137q186 0 311 -120t125 -314q0 -182 -125 -304.5t-311 -122.5h-428v-276h-299v1433h299v-296h428zM824 547q69 0 124 43.5t55 114.5q0 69 -54 113t-126 44h-391v-315h392z" />
    <glyph glyph-name="germandbls" unicode="&#xdf;" horiz-adv-x="1423" 
d="M367 0h-299v704q0 198 79.5 363.5t229.5 266.5t341 101h538v-274l-354 -307q113 -1 204 -35t147.5 -91t86 -127.5t29.5 -148.5q0 -85 -35 -164.5t-100.5 -144.5t-171 -104t-235.5 -39q-111 0 -213 35.5t-177 102.5l205 209q69 -66 185 -66q118 0 179.5 52.5t62.5 127.5
q1 70 -47.5 125.5t-134.5 70.5t-204 -43l-138 192l406 368h-213q-69 0 -129.5 -27.5t-104 -74t-75 -107.5t-47 -127.5t-15.5 -133.5v-704z" />
    <glyph glyph-name="agrave" unicode="&#xe0;" horiz-adv-x="1539" 
d="M622 1434h296l568 -1434h-295l-87 217h-669l-86 -217h-296zM770 1085l-228 -597h455zM766 1890l127 -327h-201l-221 327h295z" />
    <glyph glyph-name="aacute" unicode="&#xe1;" horiz-adv-x="1539" 
d="M622 1434h296l568 -1434h-295l-87 217h-669l-86 -217h-296zM770 1085l-228 -597h455zM655 1559l127 327h295l-221 -327h-201z" />
    <glyph glyph-name="acircumflex" unicode="&#xe2;" horiz-adv-x="1539" 
d="M622 1434h296l568 -1434h-295l-87 217h-669l-86 -217h-296zM770 1085l-228 -597h455zM1108 1559h-232l-111 125l-107 -125h-229l218 282h241z" />
    <glyph glyph-name="atilde" unicode="&#xe3;" horiz-adv-x="1539" 
d="M622 1434h296l568 -1434h-295l-87 217h-669l-86 -217h-296zM770 1085l-228 -597h455zM533 1554l-142 136q70 63 131.5 93.5t105.5 32t83.5 -9.5t74.5 -26.5t69 -23.5t74.5 5t85.5 53l143 -135q-70 -63 -131.5 -94t-106 -32t-84 10t-74.5 26t-69 23t-74.5 -5t-85.5 -53z
" />
    <glyph glyph-name="adieresis" unicode="&#xe4;" horiz-adv-x="1539" 
d="M622 1434h296l568 -1434h-295l-87 217h-669l-86 -217h-296zM770 1085l-228 -597h455zM713 1692q0 -60 -44 -105t-106 -45q-60 0 -105 44t-45 106q0 60 44 105t106 45q60 0 105 -44t45 -106zM1125 1692q0 -60 -44 -105t-106 -45q-60 0 -105 44t-45 106q0 60 44 105t106 45
q60 0 105 -44t45 -106z" />
    <glyph glyph-name="aring" unicode="&#xe5;" horiz-adv-x="1539" 
d="M622 1434h296l568 -1434h-295l-87 217h-669l-86 -217h-296zM770 1085l-228 -597h455zM1001 1748q0 -95 -68 -162.5t-163 -67.5t-163 67.5t-68 162.5t68 162.5t163 67.5t163 -67.5t68 -162.5zM770 1823q-32 0 -54 -21.5t-22 -53.5t22 -54t54 -22t54 22t22 54t-22 53.5
t-54 21.5z" />
    <glyph glyph-name="ae" unicode="&#xe6;" horiz-adv-x="1930" 
d="M1888 1159h-709v-236h527v-276h-527v-371h709v-276h-1010v217h-432l-102 -217h-327l676 1435h1195v-276zM573 489h305v673z" />
    <glyph glyph-name="�cedilla" unicode="&#xe7;" horiz-adv-x="1584" 
d="M870 -46q167 -14 232 -100q51 -67 13 -140q-41 -80 -162 -112q-151 -39 -362 19l41 154q196 -44 274 -10q40 18 20 45q-27 37 -127 47q-26 3 -54 3v143q-136 13 -257.5 72.5t-210.5 152.5t-140.5 220t-51.5 269q0 148 56.5 281t153.5 229t232.5 152t288.5 56
q159 0 300 -59.5t245.5 -174.5t150.5 -270l-285 -87q-39 142 -151 231t-260 89q-185 0 -302.5 -128t-117.5 -319q0 -186 117.5 -316t302.5 -130q150 0 260 86t151 234l285 -88q-61 -213 -237 -349t-405 -152v-48z" />
    <glyph glyph-name="egrave" unicode="&#xe8;" horiz-adv-x="1198" 
d="M136 1434h1009v-276h-709v-236h528v-276h-528v-370h709v-276h-1009v1434zM622 1892l127 -327h-201l-221 327h295z" />
    <glyph glyph-name="eacute" unicode="&#xe9;" horiz-adv-x="1198" 
d="M136 1434h1009v-276h-709v-236h528v-276h-528v-370h709v-276h-1009v1434zM511 1561l127 327h295l-221 -327h-201z" />
    <glyph glyph-name="ecircumflex" unicode="&#xea;" horiz-adv-x="1198" 
d="M136 1434h1009v-276h-709v-236h528v-276h-528v-370h709v-276h-1009v1434zM987 1559h-232l-111 125l-107 -125h-229l218 282h241z" />
    <glyph glyph-name="edieresis" unicode="&#xeb;" horiz-adv-x="1198" 
d="M136 1434h1009v-276h-709v-236h528v-276h-528v-370h709v-276h-1009v1434zM569 1694q0 -60 -44 -105t-106 -45q-60 0 -105 44t-45 106q0 60 44 105t106 45q60 0 105 -44t45 -106zM981 1694q0 -60 -44 -105t-106 -45q-60 0 -105 44t-45 106q0 60 44 105t106 45
q60 0 105 -44t45 -106z" />
    <glyph glyph-name="igrave" unicode="&#xec;" horiz-adv-x="574" 
d="M135 0v1434h300v-1434h-300zM278 1889l127 -327h-201l-221 327h295z" />
    <glyph glyph-name="iacute" unicode="&#xed;" horiz-adv-x="574" 
d="M135 0v1434h300v-1434h-300zM167 1558l127 327h295l-221 -327h-201z" />
    <glyph glyph-name="icircumflex" unicode="&#xee;" horiz-adv-x="574" 
d="M135 0v1434h300v-1434h-300zM621 1559h-232l-111 125l-107 -125h-229l218 282h241z" />
    <glyph glyph-name="idieresis" unicode="&#xef;" horiz-adv-x="574" 
d="M135 0v1434h300v-1434h-300zM225 1691q0 -60 -44 -105t-106 -45q-60 0 -105 44t-45 106q0 60 44 105t106 45q60 0 105 -44t45 -106zM637 1691q0 -60 -44 -105t-106 -45q-60 0 -105 44t-45 106q0 60 44 105t106 45q60 0 105 -44t45 -106z" />
    <glyph glyph-name="eth" unicode="&#xf0;" horiz-adv-x="1515" 
d="M20 581v274h156v578h529q198 0 365.5 -93t266.5 -258t99 -366q0 -198 -97.5 -363t-265.5 -259t-368 -94h-529v581h-156zM705 270q180 0 300 128t120 318q0 120 -49.5 221t-147 163.5t-223.5 62.5h-230v-308h372v-274h-372v-311h230z" />
    <glyph glyph-name="ntilde" unicode="&#xf1;" horiz-adv-x="1580" 
d="M1146 1433h300v-1433h-150l-864 904v-904h-299v1433h150l863 -904v904zM544 1555l-142 136q70 63 131.5 93.5t105.5 32t83.5 -9.5t74.5 -26.5t69 -23.5t74.5 5t85.5 53l143 -135q-70 -63 -131.5 -94t-106 -32t-84 10t-74.5 26t-69 23t-74.5 -5t-85.5 -53z" />
    <glyph glyph-name="ograve" unicode="&#xf2;" 
d="M394 717q0 -122 51 -223t148 -162t221 -61q129 0 226 61.5t145 162t48 222.5q0 197 -119.5 321.5t-299.5 124.5q-192 0 -306 -129t-114 -317zM83 717q0 200 97 365t264.5 258.5t369.5 93.5q160 0 297.5 -57.5t232 -155t148 -228.5t53.5 -276q0 -156 -58 -290.5
t-157 -227.5t-233 -146t-283 -53q-159 0 -296.5 57t-232 154t-148.5 228.5t-54 277.5zM809 1892l127 -327h-201l-221 327h295z" />
    <glyph glyph-name="oacute" unicode="&#xf3;" 
d="M83 717q0 200 97 365t264.5 258.5t369.5 93.5q160 0 297.5 -57.5t232 -155t148 -228.5t53.5 -276q0 -156 -58 -290.5t-157 -227.5t-233 -146t-283 -53q-159 0 -296.5 57t-232 154t-148.5 228.5t-54 277.5zM394 717q0 -122 51 -223t148 -162t221 -61q129 0 226 61.5
t145 162t48 222.5q0 197 -119.5 321.5t-299.5 124.5q-192 0 -306 -129t-114 -317zM698 1561l127 327h295l-221 -327h-201z" />
    <glyph glyph-name="ocircumflex" unicode="&#xf4;" 
d="M394 717q0 -122 51 -223t148 -162t221 -61q129 0 226 61.5t145 162t48 222.5q0 197 -119.5 321.5t-299.5 124.5q-192 0 -306 -129t-114 -317zM83 717q0 200 97 365t264.5 258.5t369.5 93.5q160 0 297.5 -57.5t232 -155t148 -228.5t53.5 -276q0 -156 -58 -290.5
t-157 -227.5t-233 -146t-283 -53q-159 0 -296.5 57t-232 154t-148.5 228.5t-54 277.5zM1163 1559h-232l-111 125l-107 -125h-229l218 282h241z" />
    <glyph glyph-name="otilde" unicode="&#xf5;" 
d="M394 717q0 -122 51 -223t148 -162t221 -61q129 0 226 61.5t145 162t48 222.5q0 197 -119.5 321.5t-299.5 124.5q-192 0 -306 -129t-114 -317zM83 717q0 200 97 365t264.5 258.5t369.5 93.5q160 0 297.5 -57.5t232 -155t148 -228.5t53.5 -276q0 -156 -58 -290.5
t-157 -227.5t-233 -146t-283 -53q-159 0 -296.5 57t-232 154t-148.5 228.5t-54 277.5zM576 1556l-142 136q70 63 131.5 93.5t105.5 32t83.5 -9.5t74.5 -26.5t69 -23.5t74.5 5t85.5 53l143 -135q-70 -63 -131.5 -94t-106 -32t-84 10t-74.5 26t-69 23t-74.5 -5t-85.5 -53z" />
    <glyph glyph-name="odieresis" unicode="&#xf6;" 
d="M394 717q0 -122 51 -223t148 -162t221 -61q129 0 226 61.5t145 162t48 222.5q0 197 -119.5 321.5t-299.5 124.5q-192 0 -306 -129t-114 -317zM83 717q0 200 97 365t264.5 258.5t369.5 93.5q160 0 297.5 -57.5t232 -155t148 -228.5t53.5 -276q0 -156 -58 -290.5
t-157 -227.5t-233 -146t-283 -53q-159 0 -296.5 57t-232 154t-148.5 228.5t-54 277.5zM756 1694q0 -60 -44 -105t-106 -45q-60 0 -105 44t-45 106q0 60 44 105t106 45q60 0 105 -44t45 -106zM1168 1694q0 -60 -44 -105t-106 -45q-60 0 -105 44t-45 106q0 60 44 105t106 45
q60 0 105 -44t45 -106z" />
    <glyph glyph-name="divide" unicode="&#xf7;" horiz-adv-x="968" 
d="M635 150q0 -60 -44 -105t-106 -45q-60 0 -105 44t-45 106q0 60 44 105t106 45q60 0 105 -44t45 -106zM635 910q0 -60 -44 -105t-106 -45q-60 0 -105 44t-45 106q0 60 44 105t106 45q60 0 105 -44t45 -106zM36 393v274h899v-274h-899z" />
    <glyph glyph-name="oslash" unicode="&#xf8;" 
d="M83 717q0 200 97 365t264.5 258.5t369.5 93.5q113 0 215 -29l83 152h315l-150 -277q127 -99 197.5 -247t70.5 -316q0 -156 -58 -290.5t-157 -227.5t-233 -146t-283 -53q-114 0 -216 29l-85 -158h-316l153 283q-127 100 -197 247t-70 316zM1233 717q0 177 -100 299
l-400 -738q36 -7 81 -7q129 0 226 61.5t145 162t48 222.5zM394 717q0 -173 100 -298l400 736q-42 8 -80 8q-192 0 -306 -129t-114 -317z" />
    <glyph glyph-name="ugrave" unicode="&#xf9;" horiz-adv-x="1462" 
d="M1052 1435h300v-778q0 -185 -75 -333.5t-217.5 -236t-329.5 -87.5q-182 0 -324.5 86t-219.5 235.5t-77 335.5v778h300v-764q0 -59 11.5 -114.5t37 -107t62.5 -89.5t91 -60.5t120 -22.5q152 0 236.5 114.5t84.5 279.5v764zM726 1890l127 -327h-201l-221 327h295z" />
    <glyph glyph-name="uacute" unicode="&#xfa;" horiz-adv-x="1462" 
d="M1052 1435h300v-778q0 -185 -75 -333.5t-217.5 -236t-329.5 -87.5q-182 0 -324.5 86t-219.5 235.5t-77 335.5v778h300v-764q0 -59 11.5 -114.5t37 -107t62.5 -89.5t91 -60.5t120 -22.5q152 0 236.5 114.5t84.5 279.5v764zM615 1559l127 327h295l-221 -327h-201z" />
    <glyph glyph-name="ucircumflex" unicode="&#xfb;" horiz-adv-x="1462" 
d="M1052 1435h300v-778q0 -185 -75 -333.5t-217.5 -236t-329.5 -87.5q-182 0 -324.5 86t-219.5 235.5t-77 335.5v778h300v-764q0 -59 11.5 -114.5t37 -107t62.5 -89.5t91 -60.5t120 -22.5q152 0 236.5 114.5t84.5 279.5v764zM1073 1558h-232l-111 125l-107 -125h-229
l218 282h241z" />
    <glyph glyph-name="udieresis" unicode="&#xfc;" horiz-adv-x="1462" 
d="M1052 1435h300v-778q0 -185 -75 -333.5t-217.5 -236t-329.5 -87.5q-182 0 -324.5 86t-219.5 235.5t-77 335.5v778h300v-764q0 -59 11.5 -114.5t37 -107t62.5 -89.5t91 -60.5t120 -22.5q152 0 236.5 114.5t84.5 279.5v764zM673 1692q0 -60 -44 -105t-106 -45
q-60 0 -105 44t-45 106q0 60 44 105t106 45q60 0 105 -44t45 -106zM1085 1692q0 -60 -44 -105t-106 -45q-60 0 -105 44t-45 106q0 60 44 105t106 45q60 0 105 -44t45 -106z" />
    <glyph glyph-name="yacute" unicode="&#xfd;" horiz-adv-x="1404" 
d="M1018 1433h336l-503 -892v-541h-299v541l-502 892h336l316 -593zM586 1559l127 327h295l-221 -327h-201z" />
    <glyph glyph-name="thorn" unicode="&#xfe;" horiz-adv-x="1337" 
d="M860 1137q186 0 311 -120t125 -314q0 -182 -125 -304.5t-311 -122.5h-428v-276h-299v1433h299v-296h428zM824 547q69 0 124 43.5t55 114.5q0 69 -54 113t-126 44h-391v-315h392z" />
    <glyph glyph-name="ydieresis" unicode="&#xff;" horiz-adv-x="1404" 
d="M1018 1433h336l-503 -892v-541h-299v541l-502 892h336l316 -593zM644 1692q0 -60 -44 -105t-106 -45q-60 0 -105 44t-45 106q0 60 44 105t106 45q60 0 105 -44t45 -106zM1056 1692q0 -60 -44 -105t-106 -45q-60 0 -105 44t-45 106q0 60 44 105t106 45q60 0 105 -44
t45 -106z" />
    <glyph glyph-name="OE" unicode="&#x152;" horiz-adv-x="1871" 
d="M1788 1159h-708v-237h528v-275h-528v-370h708v-277h-1007q-159 0 -296.5 57t-232 154.5t-148.5 229t-54 277.5q0 204 101 371.5t278 260.5t389 84h970v-275zM361 718q0 -122 51 -223.5t148 -162t221 -60.5v891q-192 0 -306 -129t-114 -316z" />
    <glyph glyph-name="oe" unicode="&#x153;" horiz-adv-x="1871" 
d="M1788 1159h-708v-237h528v-275h-528v-370h708v-277h-1007q-159 0 -296.5 57t-232 154.5t-148.5 229t-54 277.5q0 204 101 371.5t278 260.5t389 84h970v-275zM361 718q0 -122 51 -223.5t148 -162t221 -60.5v891q-192 0 -306 -129t-114 -316z" />
    <glyph glyph-name="Scaron" unicode="&#x160;" horiz-adv-x="1315" 
d="M76 250l183 204q94 -91 205 -135.5t216 -44.5q111 -1 185 44.5t74 117.5q0 41 -29 70t-78 46t-112.5 30.5t-134 27t-141 30.5t-134 46.5t-112.5 69.5t-78 104t-29 147q0 104 40.5 186.5t111 134t162 78.5t196.5 27q135 0 273 -43.5t255 -126.5l-170 -208
q-67 49 -166 78.5t-191 29.5q-96 0 -155.5 -33t-59.5 -101q0 -54 47 -88t121.5 -51t165 -31.5t181 -40.5t165 -67t121.5 -121t47 -193q0 -123 -72.5 -223.5t-197.5 -156.5t-276 -56q-152 0 -310 61t-303 188zM740 1840h232l-220 -282h-241l-218 282h229l107 -125z" />
    <glyph glyph-name="scaron" unicode="&#x161;" horiz-adv-x="1315" 
d="M76 250l183 204q94 -91 205 -135.5t216 -44.5q111 -1 185 44.5t74 117.5q0 41 -29 70t-78 46t-112.5 30.5t-134 27t-141 30.5t-134 46.5t-112.5 69.5t-78 104t-29 147q0 104 40.5 186.5t111 134t162 78.5t196.5 27q135 0 273 -43.5t255 -126.5l-170 -208
q-67 49 -166 78.5t-191 29.5q-96 0 -155.5 -33t-59.5 -101q0 -54 47 -88t121.5 -51t165 -31.5t181 -40.5t165 -67t121.5 -121t47 -193q0 -123 -72.5 -223.5t-197.5 -156.5t-276 -56q-152 0 -310 61t-303 188zM740 1840h232l-220 -282h-241l-218 282h229l107 -125z" />
    <glyph glyph-name="Ydieresis" unicode="&#x178;" horiz-adv-x="1404" 
d="M1018 1433h336l-503 -892v-541h-299v541l-502 892h336l316 -593zM644 1692q0 -60 -44 -105t-106 -45q-60 0 -105 44t-45 106q0 60 44 105t106 45q60 0 105 -44t45 -106zM1056 1692q0 -60 -44 -105t-106 -45q-60 0 -105 44t-45 106q0 60 44 105t106 45q60 0 105 -44
t45 -106z" />
    <glyph glyph-name="zacute" unicode="&#x17a;" horiz-adv-x="1373" 
d="M128 1435h1116v-138l-705 -1020h705v-277h-1116v138l705 1020h-705v277zM571 1560l127 327h295l-221 -327h-201z" />
    <glyph glyph-name="Zcaron" unicode="&#x17d;" horiz-adv-x="1373" 
d="M128 1435h1116v-138l-705 -1020h705v-277h-1116v138l705 1020h-705v277zM799 1840h232l-220 -282h-241l-218 282h229l107 -125z" />
    <glyph glyph-name="zcaron" unicode="&#x17e;" horiz-adv-x="1373" 
d="M128 1435h1116v-138l-705 -1020h705v-277h-1116v138l705 1020h-705v277zM799 1840h232l-220 -282h-241l-218 282h229l107 -125z" />
    <glyph glyph-name="circumflex" unicode="&#x2c6;" horiz-adv-x="1128" 
d="M905 1559h-232l-111 125l-107 -125h-229l218 282h241z" />
    <glyph glyph-name="caron" unicode="&#x2c7;" horiz-adv-x="1128" 
d="M673 1840h232l-220 -282h-241l-218 282h229l107 -125z" />
    <glyph glyph-name="ring" unicode="&#x2da;" horiz-adv-x="1024" 
d="M736 1749q0 -95 -68 -162.5t-163 -67.5t-163 67.5t-68 162.5t68 162.5t163 67.5t163 -67.5t68 -162.5zM505 1824q-32 0 -54 -21.5t-22 -53.5t22 -54t54 -22q31 0 53.5 22.5t22.5 53.5q0 32 -22 53.5t-54 21.5z" />
    <glyph glyph-name="tilde" unicode="&#x2dc;" horiz-adv-x="1060" 
d="M281 1555l-142 136q70 63 131.5 93.5t105.5 32t83.5 -9.5t74.5 -26.5t69 -23.5t74.5 5t85.5 53l143 -135q-70 -63 -131.5 -94t-106 -32t-84 10t-74.5 26t-69 23t-74.5 -5t-85.5 -53z" />
    <glyph glyph-name="uni0401" unicode="&#x401;" horiz-adv-x="1199" 
d="M109 1434h1009v-277h-710v-236h530v-275h-530v-371h710v-275h-1009v1434zM558 1721q0 -60 -44 -105t-106 -45q-60 0 -105 44t-45 106q0 61 43.5 105.5t106.5 44.5q61 0 105.5 -43.5t44.5 -106.5zM969 1721q0 -61 -43.5 -105.5t-106.5 -44.5q-60 0 -105 44t-45 106
q0 61 43.5 105.5t106.5 44.5q62 0 106 -43t44 -107z" />
    <glyph glyph-name="uni0410" unicode="&#x410;" horiz-adv-x="1539" 
d="M622 1434h296l568 -1434h-295l-87 217h-669l-86 -217h-296zM770 1085l-228 -597h455z" />
    <glyph glyph-name="uni0411" unicode="&#x411;" horiz-adv-x="1382" 
d="M429 582v-306h392q70 0 125 41.5t55 111.5q0 69 -53 111t-126 42h-393zM429 852h430q187 0 311 -117.5t124 -305.5q0 -191 -123.5 -310t-310.5 -119h-730v1433h1030v-276h-731v-305z" />
    <glyph glyph-name="uni0412" unicode="&#x412;" horiz-adv-x="1381" 
d="M435 271h392q71 0 125.5 44t54.5 121q0 73 -53 118.5t-126 45.5h-393v-329zM713 1166h-278v-314h299q64 7 111 49t47 108q0 70 -52.5 113.5t-126.5 43.5zM1165 1004q0 -120 -89 -230q101 -57 162.5 -144.5t61.5 -199.5q0 -192 -123.5 -311t-311.5 -119h-729v1433h595
q185 0 309.5 -118.5t124.5 -310.5z" />
    <glyph glyph-name="uni0413" unicode="&#x413;" horiz-adv-x="1179" 
d="M430 0h-300v1435h1009v-277h-709v-1158z" />
    <glyph glyph-name="uni0414" unicode="&#x414;" horiz-adv-x="1736" 
d="M1140 1158h-416q-1 -237 -34.5 -451t-120.5 -430h571v881zM1440 1435v-1158h196v-572h-299v295h-957v-295h-300v572h169q48 89 81.5 199t51.5 210t28.5 231.5t13.5 225.5t6 229q1 42 1 63h1009z" />
    <glyph glyph-name="uni0415" unicode="&#x415;" horiz-adv-x="1191" 
d="M130 1434h1009v-276h-709v-236h528v-276h-528v-370h709v-276h-1009v1434z" />
    <glyph glyph-name="uni0416" unicode="&#x416;" horiz-adv-x="2299" 
d="M1574 809l631 -809h-358l-547 712v-712h-299v712l-548 -712h-358l631 809l-522 626h352l445 -544v544h299v-544l444 544h352z" />
    <glyph glyph-name="uni0417" unicode="&#x417;" horiz-adv-x="1315" 
d="M71 257l185 205q178 -183 397 -187q120 -1 203 50.5t82 123.5q0 71 -95.5 111t-259.5 40h-197v265h197q130 0 206 38.5t76 110.5q-1 68 -71.5 112.5t-175.5 43.5q-173 0 -329 -116l-171 205q257 180 518 180q225 0 375 -125.5t151 -306.5q1 -154 -150 -249
q106 -52 165.5 -132t59.5 -177q0 -86 -43.5 -167.5t-116.5 -143t-177 -99t-219 -38.5q-320 -3 -610 256z" />
    <glyph glyph-name="uni0418" unicode="&#x418;" horiz-adv-x="1574" 
d="M130 1433h300v-909l863 909h150v-1433h-299v909l-864 -909h-150v1433z" />
    <glyph glyph-name="uni0419" unicode="&#x419;" horiz-adv-x="1492" 
d="M1244 1435h150v-1435h-299v910l-865 -910h-150v1435h300v-910zM884 1873l200 -191l-321 -338l-200 191z" />
    <glyph glyph-name="uni041A" unicode="&#x41a;" horiz-adv-x="1411" 
d="M876 1435h351l-522 -626l632 -809h-359l-548 712v-712h-300v1435h300v-544z" />
    <glyph glyph-name="uni041B" unicode="&#x41b;" horiz-adv-x="1631" 
d="M460 1434h1040v-1433h-299v1157h-442v-689q0 -195 -137 -332t-331 -137q-123 0 -229 60l146 261q38 -21 82 -21q70 0 120 50t50 120v964z" />
    <glyph glyph-name="uni041C" unicode="&#x41c;" horiz-adv-x="1815" 
d="M1534 1433h150v-1433h-299v894l-478 -545l-478 545v-894h-299v1433h150l627 -717z" />
    <glyph glyph-name="uni041D" unicode="&#x41d;" horiz-adv-x="1503" 
d="M1072 1434h300v-1434h-300v645h-643v-645h-299v1434h299v-512h643v512z" />
    <glyph glyph-name="uni041E" unicode="&#x41e;" 
d="M394 717q0 -122 51 -223t148 -162t221 -61q129 0 226 61.5t145 162t48 222.5q0 197 -119.5 321.5t-299.5 124.5q-192 0 -306 -129t-114 -317zM83 717q0 200 97 365t264.5 258.5t369.5 93.5q160 0 297.5 -57.5t232 -155t148 -228.5t53.5 -276q0 -156 -58 -290.5
t-157 -227.5t-233 -146t-283 -53q-159 0 -296.5 57t-232 154t-148.5 228.5t-54 277.5z" />
    <glyph glyph-name="uni041F" unicode="&#x41f;" horiz-adv-x="1504" 
d="M130 1435h1243v-1435h-300v1158h-643v-1158h-300v1435z" />
    <glyph glyph-name="uni0420" unicode="&#x420;" horiz-adv-x="1334" 
d="M429 851h393q70 0 124.5 41t54.5 112q0 69 -53.5 111t-126.5 42h-392v-306zM130 1433h729q186 0 310.5 -118.5t124.5 -310.5q0 -182 -124.5 -302.5t-310.5 -120.5h-430v-581h-299v1433z" />
    <glyph glyph-name="uni0421" unicode="&#x421;" horiz-adv-x="1579" 
d="M1224 591l285 -88q-64 -225 -257 -364t-439 -139q-148 0 -282.5 55t-233 149.5t-157 228t-58.5 284.5q0 148 56.5 281t153.5 229t232.5 152t288.5 56q159 0 300 -59.5t245.5 -174.5t150.5 -270l-285 -87q-39 142 -151 231t-260 89q-185 0 -302.5 -128t-117.5 -319
q0 -186 117.5 -316t302.5 -130q150 0 260 86t151 234z" />
    <glyph glyph-name="uni0422" unicode="&#x422;" horiz-adv-x="1351" 
d="M54 1435h1243v-277h-472v-1158h-300v1158h-471v277z" />
    <glyph glyph-name="uni0423" unicode="&#x423;" horiz-adv-x="1486" 
d="M324 322q38 -22 82 -22q51 0 93.5 35.5t104.5 143.5l4 7l-516 949h322l355 -653l355 653h322l-565 -1039q-37 -69 -65 -114.5t-74 -104t-91 -93.5t-109 -59.5t-135 -24.5q-121 0 -229 60z" />
    <glyph glyph-name="uni0424" unicode="&#x424;" horiz-adv-x="1692" 
d="M995 1015v-595q333 66 333 297q0 55 -18.5 101t-49 77t-75 55.5t-90 39t-100.5 25.5zM696 420v595q-333 -66 -333 -298q0 -230 333 -297zM995 1435v-143q127 -14 239 -57t201 -112.5t141 -174t52 -231.5q0 -103 -34.5 -190.5t-93 -149.5t-140.5 -110t-172 -77.5
t-193 -46.5v-143h-299v143q-91 6 -181.5 34t-171.5 78.5t-143.5 117t-99 156t-36.5 188.5q0 103 34.5 190t93 149.5t140.5 111t171.5 78t192.5 46.5v143h299z" />
    <glyph glyph-name="uni0425" unicode="&#x425;" horiz-adv-x="1627" 
d="M1126 1436h351l-488 -678l546 -758h-352l-370 513l-370 -513h-351l546 758l-489 678h352l312 -433z" />
    <glyph glyph-name="uni0426" unicode="&#x426;" horiz-adv-x="1616" 
d="M1010 1434h300v-1158h210v-571h-299v295h-1150v1434h300v-1158h639v1158z" />
    <glyph glyph-name="uni0427" unicode="&#x427;" horiz-adv-x="1335" 
d="M904 1434h300v-1434h-300v546q-152 -51 -324 -51q-251 0 -393.5 117t-142.5 355v464h299v-414q0 -130 70 -188t207 -58q158 0 284 60v603z" />
    <glyph glyph-name="uni0428" unicode="&#x428;" horiz-adv-x="2032" 
d="M1602 1433h299v-1433h-1771v1433h299v-1157h437v1157h299v-1157h437v1157z" />
    <glyph glyph-name="uni0429" unicode="&#x429;" horiz-adv-x="2155" 
d="M1541 1434h300v-1158h210v-571h-299v295h-1684v1434h299v-1158h438v1158h299v-1158h437v1158z" />
    <glyph glyph-name="uni042A" unicode="&#x42a;" horiz-adv-x="1509" 
d="M601 584v-308h393q70 0 124.5 42t54.5 112q0 69 -52.5 111t-126.5 42zM601 852h431q183 0 308.5 -116.5t125.5 -306.5q0 -191 -123.5 -310t-310.5 -119h-731v1157h-210v276h510v-581z" />
    <glyph glyph-name="uni042B" unicode="&#x42b;" horiz-adv-x="1894" 
d="M429 583v-307h393q70 0 124.5 42t54.5 112t-53 111t-126 41zM429 852h431q187 0 310.5 -117.5t123.5 -305.5q0 -191 -123 -310t-311 -119h-730v1433h299v-581zM1763 1433v-1433h-299v1433h299z" />
    <glyph glyph-name="uni042C" unicode="&#x42c;" horiz-adv-x="1334" 
d="M429 582v-306h392q70 0 125 41t55 112q0 69 -52.5 111t-126.5 42h-393zM429 852h430q188 0 311.5 -117t123.5 -306q0 -192 -123.5 -310.5t-311.5 -118.5h-729v1433h299v-581z" />
    <glyph glyph-name="uni042D" unicode="&#x42d;" horiz-adv-x="1579" 
d="M765 1435q199 0 366.5 -93t266.5 -258.5t99 -366.5q0 -149 -57.5 -282.5t-155.5 -228.5t-233.5 -150.5t-285.5 -55.5q-158 0 -298.5 59.5t-245.5 174.5t-151 269l285 88q37 -141 148.5 -230.5t261.5 -89.5q144 0 250 81.5t153 226.5h-588v276h588q-39 139 -146.5 224
t-256.5 85q-145 0 -255 -87t-155 -233l-285 87q68 229 259.5 366.5t435.5 137.5z" />
    <glyph glyph-name="uni042E" unicode="&#x42e;" horiz-adv-x="2153" 
d="M1341 1164q-178 0 -295.5 -128.5t-117.5 -317.5q0 -119 48 -220t143.5 -164t221.5 -63q178 0 295.5 129t117.5 318q0 119 -48 219.5t-144 163.5t-221 63zM1341 1435q147 0 280 -55.5t229.5 -150t153 -228t56.5 -283.5q0 -197 -94.5 -362t-259.5 -260.5t-365 -95.5
q-261 0 -453 156t-254 423h-204v-579h-300v1435h300v-580h204q52 258 246.5 419t460.5 161z" />
    <glyph glyph-name="uni042F" unicode="&#x42f;" horiz-adv-x="1456" 
d="M1026 851v306h-392q-70 0 -125 -41t-55 -112q0 -68 53.5 -110.5t125.5 -42.5h393zM1026 581h-266l-340 -581h-336l356 609q-132 46 -205.5 146.5t-73.5 248.5q0 191 124 310t311 119h729v-1433h-299v581z" />
    <glyph glyph-name="uni0430" unicode="&#x430;" horiz-adv-x="1538" 
d="M621 1434h296l568 -1434h-295l-87 217h-669l-86 -217h-296zM769 1061l-228 -573h455z" />
    <glyph glyph-name="uni0431" unicode="&#x431;" horiz-adv-x="1382" 
d="M429 582v-306h392q70 0 125 41.5t55 111.5q0 69 -53 111t-126 42h-393zM429 852h430q187 0 311 -117.5t124 -305.5q0 -191 -123.5 -310t-310.5 -119h-730v1433h1030v-276h-731v-305z" />
    <glyph glyph-name="uni0432" unicode="&#x432;" horiz-adv-x="1381" 
d="M435 271h392q71 0 125.5 44t54.5 121q0 73 -53 118.5t-126 45.5h-393v-329zM713 1166h-278v-314h299q64 7 111 49t47 108q0 70 -52.5 113.5t-126.5 43.5zM1165 1004q0 -120 -89 -230q101 -57 162.5 -144.5t61.5 -199.5q0 -192 -123.5 -311t-311.5 -119h-729v1433h595
q185 0 309.5 -118.5t124.5 -310.5z" />
    <glyph glyph-name="uni0433" unicode="&#x433;" horiz-adv-x="1179" 
d="M430 0h-300v1435h1009v-277h-709v-1158z" />
    <glyph glyph-name="uni0434" unicode="&#x434;" horiz-adv-x="1736" 
d="M1140 1158h-416q-1 -237 -34.5 -451t-120.5 -430h571v881zM1440 1435v-1158h196v-572h-299v295h-957v-295h-300v572h169q48 89 81.5 199t51.5 210t28.5 231.5t13.5 225.5t6 229q1 42 1 63h1009z" />
    <glyph glyph-name="uni0435" unicode="&#x435;" horiz-adv-x="1191" 
d="M130 1434h1009v-276h-709v-236h528v-276h-528v-370h709v-276h-1009v1434z" />
    <glyph glyph-name="uni0436" unicode="&#x436;" horiz-adv-x="2299" 
d="M1574 809l631 -809h-358l-547 712v-712h-299v712l-548 -712h-358l631 809l-522 626h352l445 -544v544h299v-544l444 544h352z" />
    <glyph glyph-name="uni0437" unicode="&#x437;" horiz-adv-x="1315" 
d="M71 257l185 205q178 -183 397 -187q120 -1 203 50.5t82 123.5q0 71 -95.5 111t-259.5 40h-197v265h197q130 0 206 38.5t76 110.5q-1 68 -71.5 112.5t-175.5 43.5q-173 0 -329 -116l-171 205q257 180 518 180q225 0 375 -125.5t151 -306.5q1 -154 -150 -249
q106 -52 165.5 -132t59.5 -177q0 -86 -43.5 -167.5t-116.5 -143t-177 -99t-219 -38.5q-320 -3 -610 256z" />
    <glyph glyph-name="uni0438" unicode="&#x438;" horiz-adv-x="1574" 
d="M130 1433h300v-909l863 909h150v-1433h-299v909l-864 -909h-150v1433z" />
    <glyph glyph-name="uni0439" unicode="&#x439;" horiz-adv-x="1492" 
d="M1244 1435h150v-1435h-299v910l-865 -910h-150v1435h300v-910zM884 1873l200 -191l-321 -338l-200 191z" />
    <glyph glyph-name="uni043A" unicode="&#x43a;" horiz-adv-x="1411" 
d="M876 1435h351l-522 -626l632 -809h-359l-548 712v-712h-300v1435h300v-544z" />
    <glyph glyph-name="uni043B" unicode="&#x43b;" horiz-adv-x="1631" 
d="M460 1434h1040v-1433h-299v1157h-442v-689q0 -195 -137 -332t-331 -137q-123 0 -229 60l146 261q38 -21 82 -21q70 0 120 50t50 120v964z" />
    <glyph glyph-name="uni043C" unicode="&#x43c;" horiz-adv-x="1815" 
d="M1534 1433h150v-1433h-299v894l-478 -545l-478 545v-894h-299v1433h150l627 -717z" />
    <glyph glyph-name="uni043D" unicode="&#x43d;" horiz-adv-x="1503" 
d="M1072 1434h300v-1434h-300v645h-643v-645h-299v1434h299v-512h643v512z" />
    <glyph glyph-name="uni043E" unicode="&#x43e;" 
d="M394 717q0 -122 51 -223t148 -162t221 -61q129 0 226 61.5t145 162t48 222.5q0 197 -119.5 321.5t-299.5 124.5q-192 0 -306 -129t-114 -317zM83 717q0 200 97 365t264.5 258.5t369.5 93.5q160 0 297.5 -57.5t232 -155t148 -228.5t53.5 -276q0 -156 -58 -290.5
t-157 -227.5t-233 -146t-283 -53q-159 0 -296.5 57t-232 154t-148.5 228.5t-54 277.5z" />
    <glyph glyph-name="uni043F" unicode="&#x43f;" horiz-adv-x="1504" 
d="M130 1435h1243v-1435h-300v1158h-643v-1158h-300v1435z" />
    <glyph glyph-name="uni0440" unicode="&#x440;" horiz-adv-x="1334" 
d="M429 851h393q70 0 124.5 41t54.5 112q0 69 -53.5 111t-126.5 42h-392v-306zM130 1433h729q186 0 310.5 -118.5t124.5 -310.5q0 -182 -124.5 -302.5t-310.5 -120.5h-430v-581h-299v1433z" />
    <glyph glyph-name="uni0441" unicode="&#x441;" horiz-adv-x="1579" 
d="M1224 591l285 -88q-64 -225 -257 -364t-439 -139q-148 0 -282.5 55t-233 149.5t-157 228t-58.5 284.5q0 148 56.5 281t153.5 229t232.5 152t288.5 56q159 0 300 -59.5t245.5 -174.5t150.5 -270l-285 -87q-39 142 -151 231t-260 89q-185 0 -302.5 -128t-117.5 -319
q0 -186 117.5 -316t302.5 -130q150 0 260 86t151 234z" />
    <glyph glyph-name="uni0442" unicode="&#x442;" horiz-adv-x="1351" 
d="M54 1435h1243v-277h-472v-1158h-300v1158h-471v277z" />
    <glyph glyph-name="uni0443" unicode="&#x443;" horiz-adv-x="1486" 
d="M324 322q38 -22 82 -22q51 0 93.5 35.5t104.5 143.5l4 7l-516 949h322l355 -653l355 653h322l-565 -1039q-37 -69 -65 -114.5t-74 -104t-91 -93.5t-109 -59.5t-135 -24.5q-121 0 -229 60z" />
    <glyph glyph-name="uni0444" unicode="&#x444;" horiz-adv-x="1692" 
d="M995 1015v-595q333 66 333 297q0 55 -18.5 101t-49 77t-75 55.5t-90 39t-100.5 25.5zM696 420v595q-333 -66 -333 -298q0 -230 333 -297zM995 1435v-143q127 -14 239 -57t201 -112.5t141 -174t52 -231.5q0 -103 -34.5 -190.5t-93 -149.5t-140.5 -110t-172 -77.5
t-193 -46.5v-143h-299v143q-91 6 -181.5 34t-171.5 78.5t-143.5 117t-99 156t-36.5 188.5q0 103 34.5 190t93 149.5t140.5 111t171.5 78t192.5 46.5v143h299z" />
    <glyph glyph-name="uni0445" unicode="&#x445;" horiz-adv-x="1627" 
d="M1126 1436h351l-488 -678l546 -758h-352l-370 513l-370 -513h-351l546 758l-489 678h352l312 -433z" />
    <glyph glyph-name="uni0446" unicode="&#x446;" horiz-adv-x="1616" 
d="M1010 1434h300v-1158h210v-571h-299v295h-1150v1434h300v-1158h639v1158z" />
    <glyph glyph-name="uni0447" unicode="&#x447;" horiz-adv-x="1335" 
d="M904 1434h300v-1434h-300v546q-152 -51 -324 -51q-251 0 -393.5 117t-142.5 355v464h299v-414q0 -130 70 -188t207 -58q158 0 284 60v603z" />
    <glyph glyph-name="uni0448" unicode="&#x448;" horiz-adv-x="2032" 
d="M1602 1433h299v-1433h-1771v1433h299v-1157h437v1157h299v-1157h437v1157z" />
    <glyph glyph-name="uni0449" unicode="&#x449;" horiz-adv-x="2155" 
d="M1541 1434h300v-1158h210v-571h-299v295h-1684v1434h299v-1158h438v1158h299v-1158h437v1158z" />
    <glyph glyph-name="uni044A" unicode="&#x44a;" horiz-adv-x="1509" 
d="M601 584v-308h393q70 0 124.5 42t54.5 112q0 69 -52.5 111t-126.5 42zM601 852h431q183 0 308.5 -116.5t125.5 -306.5q0 -191 -123.5 -310t-310.5 -119h-731v1157h-210v276h510v-581z" />
    <glyph glyph-name="uni044B" unicode="&#x44b;" horiz-adv-x="1894" 
d="M429 583v-307h393q70 0 124.5 42t54.5 112t-53 111t-126 41zM429 852h431q187 0 310.5 -117.5t123.5 -305.5q0 -191 -123 -310t-311 -119h-730v1433h299v-581zM1763 1433v-1433h-299v1433h299z" />
    <glyph glyph-name="uni044C" unicode="&#x44c;" horiz-adv-x="1334" 
d="M429 582v-306h392q70 0 125 41t55 112q0 69 -52.5 111t-126.5 42h-393zM429 852h430q188 0 311.5 -117t123.5 -306q0 -192 -123.5 -310.5t-311.5 -118.5h-729v1433h299v-581z" />
    <glyph glyph-name="uni044D" unicode="&#x44d;" horiz-adv-x="1579" 
d="M765 1435q199 0 366.5 -93t266.5 -258.5t99 -366.5q0 -149 -57.5 -282.5t-155.5 -228.5t-233.5 -150.5t-285.5 -55.5q-158 0 -298.5 59.5t-245.5 174.5t-151 269l285 88q37 -141 148.5 -230.5t261.5 -89.5q144 0 250 81.5t153 226.5h-588v276h588q-39 139 -146.5 224
t-256.5 85q-145 0 -255 -87t-155 -233l-285 87q68 229 259.5 366.5t435.5 137.5z" />
    <glyph glyph-name="uni044E" unicode="&#x44e;" horiz-adv-x="2153" 
d="M1341 1164q-178 0 -295.5 -128.5t-117.5 -317.5q0 -119 48 -220t143.5 -164t221.5 -63q178 0 295.5 129t117.5 318q0 119 -48 219.5t-144 163.5t-221 63zM1341 1435q147 0 280 -55.5t229.5 -150t153 -228t56.5 -283.5q0 -197 -94.5 -362t-259.5 -260.5t-365 -95.5
q-261 0 -453 156t-254 423h-204v-579h-300v1435h300v-580h204q52 258 246.5 419t460.5 161z" />
    <glyph glyph-name="uni044F" unicode="&#x44f;" horiz-adv-x="1456" 
d="M1026 851v306h-392q-70 0 -125 -41t-55 -112q0 -68 53.5 -110.5t125.5 -42.5h393zM1026 581h-266l-340 -581h-336l356 609q-132 46 -205.5 146.5t-73.5 248.5q0 191 124 310t311 119h729v-1433h-299v581z" />
    <glyph glyph-name="uni0451" unicode="&#x451;" horiz-adv-x="1199" 
d="M109 1434h1009v-277h-710v-236h530v-275h-530v-371h710v-275h-1009v1434zM558 1721q0 -60 -44 -105t-106 -45q-60 0 -105 44t-45 106q0 61 43.5 105.5t106.5 44.5q61 0 105.5 -43.5t44.5 -106.5zM969 1721q0 -61 -43.5 -105.5t-106.5 -44.5q-60 0 -105 44t-45 106
q0 61 43.5 105.5t106.5 44.5q62 0 106 -43t44 -107z" />
    <glyph glyph-name="endash" unicode="&#x2013;" horiz-adv-x="1160" 
d="M130 448v274h899v-274h-899z" />
    <glyph glyph-name="emdash" unicode="&#x2014;" horiz-adv-x="1495" 
d="M124 448v274h1246v-274h-1246z" />
    <glyph glyph-name="quoteleft" unicode="&#x2018;" horiz-adv-x="412" 
d="M55 1162q0 103 62.5 201t163.5 157l65 -95q-59 -44 -131 -125q44 -11 74 -47t30 -82q0 -54 -38 -95t-91 -41q-54 0 -94.5 37t-40.5 90z" />
    <glyph glyph-name="quoteright" unicode="&#x2019;" horiz-adv-x="409" 
d="M356 1393q0 -102 -62 -199t-164 -159l-65 95q86 62 131 125q-45 11 -74.5 47.5t-29.5 82.5q0 54 38.5 94.5t90.5 40.5q53 0 94 -37t41 -90z" />
    <glyph glyph-name="quotesinglbase" unicode="&#x201a;" horiz-adv-x="410" 
d="M356 141q0 -103 -62.5 -201t-163.5 -157l-65 95q86 62 131 125q-45 11 -74.5 47.5t-29.5 82.5q0 54 38.5 94.5t90.5 40.5q53 0 94 -37t41 -90z" />
    <glyph glyph-name="quotedblleft" unicode="&#x201c;" horiz-adv-x="766" 
d="M382 1162q0 103 62.5 201t163.5 157l65 -95q-48 -34 -131 -125q44 -11 74 -47t30 -82q0 -55 -37.5 -95.5t-91.5 -40.5t-93 36.5t-42 90.5zM85 1162q0 103 62.5 201t163.5 157l65 -95q-59 -44 -131 -125q44 -11 74 -47t30 -82q0 -54 -38 -95t-91 -41q-54 0 -94.5 37
t-40.5 90z" />
    <glyph glyph-name="quotedblright" unicode="&#x201d;" horiz-adv-x="765" 
d="M385 1393q0 -102 -62 -199t-164 -159l-65 95q86 62 131 125q-45 11 -74.5 47.5t-29.5 82.5q0 54 38.5 94.5t90.5 40.5q53 0 94 -37t41 -90zM682 1393q0 -102 -62 -199t-164 -159l-65 95q57 38 132 125q-46 10 -75.5 47.5t-29.5 82.5q0 54 38.5 94.5t90.5 40.5
q53 0 94 -37t41 -90z" />
    <glyph glyph-name="quotedblbase" unicode="&#x201e;" horiz-adv-x="766" 
d="M385 141q0 -103 -62.5 -201t-163.5 -157l-65 95q86 62 131 125q-45 11 -74.5 47.5t-29.5 82.5q0 54 38.5 94.5t90.5 40.5q53 0 94 -37t41 -90zM682 141q0 -103 -62.5 -201t-163.5 -157l-65 95q57 38 132 125q-46 10 -75.5 47.5t-29.5 82.5q0 54 38.5 94.5t90.5 40.5
q53 0 94 -37t41 -90z" />
    <glyph glyph-name="dagger" unicode="&#x2020;" horiz-adv-x="508" 
d="M-257 1055v274h368v379h286v-379h370v-274h-370v-1342h-286v1342h-368z" />
    <glyph glyph-name="ellipsis" unicode="&#x2026;" horiz-adv-x="1413" 
d="M385 150q0 -60 -44 -105t-106 -45q-60 0 -105 44t-45 106q0 60 44 105t106 45q60 0 105 -44t45 -106zM856 150q0 -60 -44 -105t-106 -45q-60 0 -105 44t-45 106q0 60 44 105t106 45q60 0 105 -44t45 -106zM1327 150q0 -60 -44 -105t-106 -45q-60 0 -105 44t-45 106
q0 60 44 105t106 45q60 0 105 -44t45 -106z" />
    <glyph glyph-name="perthousand" unicode="&#x2030;" horiz-adv-x="3079" 
d="M534 0l789 1434h292l-788 -1434h-293zM644 1003q0 73 -37.5 132t-107.5 59q-69 0 -107 -58t-38 -133q0 -73 37 -132.5t108 -59.5q69 0 107 58.5t38 133.5zM922 1003q0 -119 -51 -220.5t-149 -164.5t-223 -63q-182 0 -302.5 129.5t-120.5 318.5q0 119 51.5 220.5
t149.5 164.5t222 63q182 0 302.5 -129t120.5 -319zM1506 432q0 -73 37 -132t108 -59q69 0 107 58t38 133q0 73 -37.5 132t-107.5 59t-107.5 -58t-37.5 -133zM1228 432q0 121 52.5 222.5t150 163.5t220.5 62q182 0 302.5 -129.5t120.5 -318.5q0 -119 -51.5 -220.5
t-149.5 -164.5t-222 -63q-182 0 -302.5 129.5t-120.5 318.5zM2438 432q0 -73 37 -132t108 -59q69 0 107 58t38 133q0 73 -37.5 132t-107.5 59t-107.5 -58t-37.5 -133zM2160 432q0 121 52.5 222.5t150 163.5t220.5 62q182 0 302.5 -129.5t120.5 -318.5q0 -119 -51.5 -220.5
t-149.5 -164.5t-222 -63q-182 0 -302.5 129.5t-120.5 318.5z" />
    <glyph glyph-name="guilsinglleft" unicode="&#x2039;" horiz-adv-x="715" 
d="M314 992h308l-277 -407l277 -407h-308l-268 407z" />
    <glyph glyph-name="guilsinglright" unicode="&#x203a;" horiz-adv-x="715" 
d="M93 992h308l268 -407l-268 -407h-308l277 407z" />
    <glyph glyph-name="Euro" unicode="&#x20ac;" horiz-adv-x="1584" 
d="M-53 770v218h189q81 201 264 324t416 123q159 0 300 -59.5t245.5 -174.5t150.5 -270l-285 -87q-39 142 -151 231t-260 89q-108 0 -196 -47t-145 -129h486v-218h-562q-3 -27 -3 -53q0 -17 2 -47h563v-215h-490q56 -86 145 -135t200 -49q150 0 260 86t151 234l285 -88
q-64 -225 -257 -364t-439 -139q-230 0 -416.5 125t-266.5 330h-186v215h139q-1 15 -1 47q0 17 2 53h-140z" />
    <glyph glyph-name="uni20BD" unicode="&#x20bd;" horiz-adv-x="1509" 
d="M591 1161v-304h393q69 0 124 40.5t55 110.5t-52.5 110t-127.5 43h-392zM291 1434h730q186 0 310.5 -119t124.5 -307q0 -180 -126 -288t-309 -108h-430v-139h729v-237h-729v-236h-300v236h-211v237h211v139h-211v243h211v579z" />
    <glyph glyph-name="uni2116" unicode="&#x2116;" horiz-adv-x="2501" 
d="M130 1435h150l865 -910v910h299v-1435h-150l-865 910v-910h-299v1435zM2367 439v-275h-785v275h785zM2407 977q0 -121 -52.5 -225t-152.5 -168.5t-227 -64.5q-185 0 -309 132.5t-124 325.5q0 122 52.5 225.5t153 168t227.5 64.5q186 0 309 -132.5t123 -325.5zM2123 977
q0 75 -38 135.5t-110 60.5q-70 0 -109.5 -60t-39.5 -136q0 -74 38.5 -135t110.5 -61q71 0 109.5 59.5t38.5 136.5z" />
    <glyph glyph-name="trademark" unicode="&#x2122;" horiz-adv-x="1458" 
d="M61 1435h522v-171h-168v-431h-187v431h-167v171zM1271 1435h91v-602h-186v264l-167 -155l-167 155v-264h-186v602h92l261 -272z" />
    </font>
</defs>
</svg>
